<?xml version="1.0" encoding="UTF-8" standalone="no"?>
<svg
   xmlns:dc="http://purl.org/dc/elements/1.1/"
   xmlns:cc="http://creativecommons.org/ns#"
   xmlns:rdf="http://www.w3.org/1999/02/22-rdf-syntax-ns#"
   xmlns:svg="http://www.w3.org/2000/svg"
   xmlns="http://www.w3.org/2000/svg"
   xmlns:sodipodi="http://sodipodi.sourceforge.net/DTD/sodipodi-0.dtd"
   xmlns:inkscape="http://www.inkscape.org/namespaces/inkscape"
   sodipodi:docname="One Percent.svg"
   inkscape:version="1.0 (4035a4fb49, 2020-05-01)"
   id="svg2087"
   version="1.1"
   viewBox="0 0 210 297"
   height="297mm"
   width="210mm"
   inkscape:export-filename="C:\DSC640\Project\Task4\One_Percent.png"
   inkscape:export-xdpi="96"
   inkscape:export-ydpi="96">
  <defs
     id="defs2081">
    <clipPath
       clipPathUnits="userSpaceOnUse"
       id="clipEmfPath1">
      <path
         d="M -35.018776,1.2792247 L 424.7026,1.2792247 L 424.7026,229.62084 L -35.018776,229.62084 z"
         id="path2650" />
    </clipPath>
    <pattern
       id="EMFhbasepattern"
       patternUnits="userSpaceOnUse"
       width="6"
       height="6"
       x="0"
       y="0" />
  </defs>
  <sodipodi:namedview
     inkscape:window-maximized="0"
     inkscape:window-y="0"
     inkscape:window-x="32"
     inkscape:window-height="1030"
     inkscape:window-width="1541"
     showgrid="false"
     inkscape:document-rotation="0"
     inkscape:current-layer="layer1"
     inkscape:document-units="mm"
     inkscape:cy="560"
     inkscape:cx="400"
     inkscape:zoom="0.7"
     inkscape:pageshadow="2"
     inkscape:pageopacity="0.0"
     borderopacity="1.0"
     bordercolor="#666666"
     pagecolor="#ffffff"
     id="base" />
  <metadata
     id="metadata2084">
    <rdf:RDF>
      <cc:Work
         rdf:about="">
        <dc:format>image/svg+xml</dc:format>
        <dc:type
           rdf:resource="http://purl.org/dc/dcmitype/StillImage" />
        <dc:title />
      </cc:Work>
    </rdf:RDF>
  </metadata>
  <g
     id="layer1"
     inkscape:groupmode="layer"
     inkscape:label="Layer 1">
    <path
       style="fill:#4f81bd;fill-opacity:1;fill-rule:evenodd;stroke:none;stroke-width:0.264583"
       d="m 39.232383,43.323979 c 0,-1.166106 0.949279,-2.115384 2.115385,-2.115384 1.16875,0 2.115385,0.949278 2.115385,2.115384 0,1.16875 -0.946635,2.115385 -2.115385,2.115385 -1.166106,0 -2.115385,-0.946635 -2.115385,-2.115385 z"
       id="path2656" />
    <path
       style="fill:none;stroke:#385d8a;stroke-width:0.70601px;stroke-linecap:butt;stroke-linejoin:round;stroke-miterlimit:4;stroke-dasharray:none;stroke-opacity:1"
       d="m 39.232383,43.323979 c 0,-1.166106 0.949279,-2.115384 2.115385,-2.115384 1.16875,0 2.115385,0.949278 2.115385,2.115384 0,1.16875 -0.946635,2.115385 -2.115385,2.115385 -1.166106,0 -2.115385,-0.946635 -2.115385,-2.115385"
       id="path2658" />
    <path
       style="fill:#4f81bd;fill-opacity:1;fill-rule:evenodd;stroke:none;stroke-width:0.264583"
       d="m 43.463153,47.554748 c 0,-1.166105 0.949278,-2.115384 2.115384,-2.115384 1.16875,0 2.115385,0.949279 2.115385,2.115384 0,1.168751 -0.946635,2.115385 -2.115385,2.115385 -1.166106,0 -2.115384,-0.946634 -2.115384,-2.115385 z"
       id="path2660" />
    <path
       style="fill:none;stroke:#385d8a;stroke-width:0.70601px;stroke-linecap:butt;stroke-linejoin:round;stroke-miterlimit:4;stroke-dasharray:none;stroke-opacity:1"
       d="m 43.463153,47.554748 c 0,-1.166105 0.949278,-2.115384 2.115384,-2.115384 1.16875,0 2.115385,0.949279 2.115385,2.115384 0,1.168751 -0.946635,2.115385 -2.115385,2.115385 -1.166106,0 -2.115384,-0.946634 -2.115384,-2.115385"
       id="path2662" />
    <path
       style="fill:#4f81bd;fill-opacity:1;fill-rule:evenodd;stroke:none;stroke-width:0.264583"
       d="m 47.693922,51.785518 c 0,-1.166106 0.949279,-2.115385 2.115384,-2.115385 1.168751,0 2.115385,0.949279 2.115385,2.115385 0,1.16875 -0.946634,2.115385 -2.115385,2.115385 -1.166105,0 -2.115384,-0.946635 -2.115384,-2.115385 z"
       id="path2664" />
    <path
       style="fill:none;stroke:#385d8a;stroke-width:0.70601px;stroke-linecap:butt;stroke-linejoin:round;stroke-miterlimit:4;stroke-dasharray:none;stroke-opacity:1"
       d="m 47.693922,51.785518 c 0,-1.166106 0.949279,-2.115385 2.115384,-2.115385 1.168751,0 2.115385,0.949279 2.115385,2.115385 0,1.16875 -0.946634,2.115385 -2.115385,2.115385 -1.166105,0 -2.115384,-0.946635 -2.115384,-2.115385"
       id="path2666" />
    <path
       style="fill:#4f81bd;fill-opacity:1;fill-rule:evenodd;stroke:none;stroke-width:0.264583"
       d="m 51.924691,56.016287 c 0,-1.166105 0.949279,-2.115384 2.115385,-2.115384 1.168749,0 2.115383,0.949279 2.115383,2.115384 0,1.16875 -0.946634,2.115385 -2.115383,2.115385 -1.166106,0 -2.115385,-0.946635 -2.115385,-2.115385 z"
       id="path2668" />
    <path
       style="fill:none;stroke:#385d8a;stroke-width:0.70601px;stroke-linecap:butt;stroke-linejoin:round;stroke-miterlimit:4;stroke-dasharray:none;stroke-opacity:1"
       d="m 51.924691,56.016287 c 0,-1.166105 0.949279,-2.115384 2.115385,-2.115384 1.168749,0 2.115383,0.949279 2.115383,2.115384 0,1.16875 -0.946634,2.115385 -2.115383,2.115385 -1.166106,0 -2.115385,-0.946635 -2.115385,-2.115385"
       id="path2670" />
    <path
       style="fill:#4f81bd;fill-opacity:1;fill-rule:evenodd;stroke:none;stroke-width:0.264583"
       d="m 56.155459,60.247056 c 0,-1.166105 0.94928,-2.115384 2.115386,-2.115384 1.16875,0 2.115384,0.949279 2.115384,2.115384 0,1.16875 -0.946634,2.115385 -2.115384,2.115385 -1.166106,0 -2.115386,-0.946635 -2.115386,-2.115385 z"
       id="path2672" />
    <path
       style="fill:none;stroke:#385d8a;stroke-width:0.70601px;stroke-linecap:butt;stroke-linejoin:round;stroke-miterlimit:4;stroke-dasharray:none;stroke-opacity:1"
       d="m 56.155459,60.247056 c 0,-1.166105 0.94928,-2.115384 2.115386,-2.115384 1.16875,0 2.115384,0.949279 2.115384,2.115384 0,1.16875 -0.946634,2.115385 -2.115384,2.115385 -1.166106,0 -2.115386,-0.946635 -2.115386,-2.115385"
       id="path2674" />
    <path
       style="fill:#4f81bd;fill-opacity:1;fill-rule:evenodd;stroke:none;stroke-width:0.264583"
       d="m 60.386229,64.477826 c 0,-1.166106 0.94928,-2.115385 2.115386,-2.115385 1.168749,0 2.115383,0.949279 2.115383,2.115385 0,1.16875 -0.946634,2.115383 -2.115383,2.115383 -1.166106,0 -2.115386,-0.946633 -2.115386,-2.115383 z"
       id="path2676" />
    <path
       style="fill:none;stroke:#385d8a;stroke-width:0.70601px;stroke-linecap:butt;stroke-linejoin:round;stroke-miterlimit:4;stroke-dasharray:none;stroke-opacity:1"
       d="m 60.386229,64.477826 c 0,-1.166106 0.94928,-2.115385 2.115386,-2.115385 1.168749,0 2.115383,0.949279 2.115383,2.115385 0,1.16875 -0.946634,2.115383 -2.115383,2.115383 -1.166106,0 -2.115386,-0.946633 -2.115386,-2.115383"
       id="path2678" />
    <path
       style="fill:#4f81bd;fill-opacity:1;fill-rule:evenodd;stroke:none;stroke-width:0.264583"
       d="m 64.616998,68.708595 c 0,-1.166106 0.94928,-2.115386 2.115386,-2.115386 1.16875,0 2.115384,0.94928 2.115384,2.115386 0,1.16875 -0.946634,2.115384 -2.115384,2.115384 -1.166106,0 -2.115386,-0.946634 -2.115386,-2.115384 z"
       id="path2680" />
    <path
       style="fill:none;stroke:#385d8a;stroke-width:0.70601px;stroke-linecap:butt;stroke-linejoin:round;stroke-miterlimit:4;stroke-dasharray:none;stroke-opacity:1"
       d="m 64.616998,68.708595 c 0,-1.166106 0.94928,-2.115386 2.115386,-2.115386 1.16875,0 2.115384,0.94928 2.115384,2.115386 0,1.16875 -0.946634,2.115384 -2.115384,2.115384 -1.166106,0 -2.115386,-0.946634 -2.115386,-2.115384"
       id="path2682" />
    <path
       style="fill:#4f81bd;fill-opacity:1;fill-rule:evenodd;stroke:none;stroke-width:0.264583"
       d="m 68.847768,72.939365 c 0,-1.166106 0.94928,-2.115386 2.115386,-2.115386 1.168749,0 2.115383,0.94928 2.115383,2.115386 0,1.168749 -0.946634,2.115383 -2.115383,2.115383 -1.166106,0 -2.115386,-0.946634 -2.115386,-2.115383 z"
       id="path2684" />
    <path
       style="fill:none;stroke:#385d8a;stroke-width:0.70601px;stroke-linecap:butt;stroke-linejoin:round;stroke-miterlimit:4;stroke-dasharray:none;stroke-opacity:1"
       d="m 68.847768,72.939365 c 0,-1.166106 0.94928,-2.115386 2.115386,-2.115386 1.168749,0 2.115383,0.94928 2.115383,2.115386 0,1.168749 -0.946634,2.115383 -2.115383,2.115383 -1.166106,0 -2.115386,-0.946634 -2.115386,-2.115383"
       id="path2686" />
    <path
       style="fill:#4f81bd;fill-opacity:1;fill-rule:evenodd;stroke:none;stroke-width:0.264583"
       d="m 73.078537,77.170135 c 0,-1.166107 0.94928,-2.115387 2.115384,-2.115387 1.168752,0 2.115386,0.94928 2.115386,2.115387 0,1.168749 -0.946634,2.115383 -2.115386,2.115383 -1.166104,0 -2.115384,-0.946634 -2.115384,-2.115383 z"
       id="path2688" />
    <path
       style="fill:none;stroke:#385d8a;stroke-width:0.70601px;stroke-linecap:butt;stroke-linejoin:round;stroke-miterlimit:4;stroke-dasharray:none;stroke-opacity:1"
       d="m 73.078537,77.170135 c 0,-1.166107 0.94928,-2.115387 2.115384,-2.115387 1.168752,0 2.115386,0.94928 2.115386,2.115387 0,1.168749 -0.946634,2.115383 -2.115386,2.115383 -1.166104,0 -2.115384,-0.946634 -2.115384,-2.115383"
       id="path2690" />
    <path
       style="fill:#4f81bd;fill-opacity:1;fill-rule:evenodd;stroke:none;stroke-width:0.264583"
       d="m 77.309307,81.400901 c 0,-1.166103 0.949277,-2.115383 2.115383,-2.115383 1.168752,0 2.115386,0.94928 2.115386,2.115383 0,1.168752 -0.946634,2.115386 -2.115386,2.115386 -1.166106,0 -2.115383,-0.946634 -2.115383,-2.115386 z"
       id="path2692" />
    <path
       style="fill:none;stroke:#385d8a;stroke-width:0.70601px;stroke-linecap:butt;stroke-linejoin:round;stroke-miterlimit:4;stroke-dasharray:none;stroke-opacity:1"
       d="m 77.309307,81.400901 c 0,-1.166103 0.949277,-2.115383 2.115383,-2.115383 1.168752,0 2.115386,0.94928 2.115386,2.115383 0,1.168752 -0.946634,2.115386 -2.115386,2.115386 -1.166106,0 -2.115383,-0.946634 -2.115383,-2.115386"
       id="path2694" />
    <path
       style="fill:#4f81bd;fill-opacity:1;fill-rule:evenodd;stroke:none;stroke-width:0.264583"
       d="m 43.547768,43.323979 c 0,-1.166106 0.949279,-2.115384 2.115385,-2.115384 1.16875,0 2.115384,0.949278 2.115384,2.115384 0,1.16875 -0.946634,2.115385 -2.115384,2.115385 -1.166106,0 -2.115385,-0.946635 -2.115385,-2.115385 z"
       id="path2696" />
    <path
       style="fill:none;stroke:#385d8a;stroke-width:0.70601px;stroke-linecap:butt;stroke-linejoin:round;stroke-miterlimit:4;stroke-dasharray:none;stroke-opacity:1"
       d="m 43.547768,43.323979 c 0,-1.166106 0.949279,-2.115384 2.115385,-2.115384 1.16875,0 2.115384,0.949278 2.115384,2.115384 0,1.16875 -0.946634,2.115385 -2.115384,2.115385 -1.166106,0 -2.115385,-0.946635 -2.115385,-2.115385"
       id="path2698" />
    <path
       style="fill:#4f81bd;fill-opacity:1;fill-rule:evenodd;stroke:none;stroke-width:0.264583"
       d="m 47.778537,47.554748 c 0,-1.166105 0.949279,-2.115384 2.115385,-2.115384 1.16875,0 2.115385,0.949279 2.115385,2.115384 0,1.168751 -0.946635,2.115385 -2.115385,2.115385 -1.166106,0 -2.115385,-0.946634 -2.115385,-2.115385 z"
       id="path2700" />
    <path
       style="fill:none;stroke:#385d8a;stroke-width:0.70601px;stroke-linecap:butt;stroke-linejoin:round;stroke-miterlimit:4;stroke-dasharray:none;stroke-opacity:1"
       d="m 47.778537,47.554748 c 0,-1.166105 0.949279,-2.115384 2.115385,-2.115384 1.16875,0 2.115385,0.949279 2.115385,2.115384 0,1.168751 -0.946635,2.115385 -2.115385,2.115385 -1.166106,0 -2.115385,-0.946634 -2.115385,-2.115385"
       id="path2702" />
    <path
       style="fill:#4f81bd;fill-opacity:1;fill-rule:evenodd;stroke:none;stroke-width:0.264583"
       d="m 52.009307,51.785518 c 0,-1.166106 0.949278,-2.115385 2.115385,-2.115385 1.168749,0 2.115384,0.949279 2.115384,2.115385 0,1.16875 -0.946635,2.115385 -2.115384,2.115385 -1.166107,0 -2.115385,-0.946635 -2.115385,-2.115385 z"
       id="path2704" />
    <path
       style="fill:none;stroke:#385d8a;stroke-width:0.70601px;stroke-linecap:butt;stroke-linejoin:round;stroke-miterlimit:4;stroke-dasharray:none;stroke-opacity:1"
       d="m 52.009307,51.785518 c 0,-1.166106 0.949278,-2.115385 2.115385,-2.115385 1.168749,0 2.115384,0.949279 2.115384,2.115385 0,1.16875 -0.946635,2.115385 -2.115384,2.115385 -1.166107,0 -2.115385,-0.946635 -2.115385,-2.115385"
       id="path2706" />
    <path
       style="fill:#4f81bd;fill-opacity:1;fill-rule:evenodd;stroke:none;stroke-width:0.264583"
       d="m 56.240076,56.016287 c 0,-1.166105 0.94928,-2.115384 2.115386,-2.115384 1.168749,0 2.115383,0.949279 2.115383,2.115384 0,1.16875 -0.946634,2.115385 -2.115383,2.115385 -1.166106,0 -2.115386,-0.946635 -2.115386,-2.115385 z"
       id="path2708" />
    <path
       style="fill:none;stroke:#385d8a;stroke-width:0.70601px;stroke-linecap:butt;stroke-linejoin:round;stroke-miterlimit:4;stroke-dasharray:none;stroke-opacity:1"
       d="m 56.240076,56.016287 c 0,-1.166105 0.94928,-2.115384 2.115386,-2.115384 1.168749,0 2.115383,0.949279 2.115383,2.115384 0,1.16875 -0.946634,2.115385 -2.115383,2.115385 -1.166106,0 -2.115386,-0.946635 -2.115386,-2.115385"
       id="path2710" />
    <path
       style="fill:#4f81bd;fill-opacity:1;fill-rule:evenodd;stroke:none;stroke-width:0.264583"
       d="m 60.470845,60.247056 c 0,-1.166105 0.94928,-2.115384 2.115384,-2.115384 1.168751,0 2.115386,0.949279 2.115386,2.115384 0,1.16875 -0.946635,2.115385 -2.115386,2.115385 -1.166104,0 -2.115384,-0.946635 -2.115384,-2.115385 z"
       id="path2712" />
    <path
       style="fill:none;stroke:#385d8a;stroke-width:0.70601px;stroke-linecap:butt;stroke-linejoin:round;stroke-miterlimit:4;stroke-dasharray:none;stroke-opacity:1"
       d="m 60.470845,60.247056 c 0,-1.166105 0.94928,-2.115384 2.115384,-2.115384 1.168751,0 2.115386,0.949279 2.115386,2.115384 0,1.16875 -0.946635,2.115385 -2.115386,2.115385 -1.166104,0 -2.115384,-0.946635 -2.115384,-2.115385"
       id="path2714" />
    <path
       style="fill:#4f81bd;fill-opacity:1;fill-rule:evenodd;stroke:none;stroke-width:0.264583"
       d="m 64.701615,64.477826 c 0,-1.166106 0.949277,-2.115385 2.115383,-2.115385 1.168752,0 2.115386,0.949279 2.115386,2.115385 0,1.16875 -0.946634,2.115383 -2.115386,2.115383 -1.166106,0 -2.115383,-0.946633 -2.115383,-2.115383 z"
       id="path2716" />
    <path
       style="fill:none;stroke:#385d8a;stroke-width:0.70601px;stroke-linecap:butt;stroke-linejoin:round;stroke-miterlimit:4;stroke-dasharray:none;stroke-opacity:1"
       d="m 64.701615,64.477826 c 0,-1.166106 0.949277,-2.115385 2.115383,-2.115385 1.168752,0 2.115386,0.949279 2.115386,2.115385 0,1.16875 -0.946634,2.115383 -2.115386,2.115383 -1.166106,0 -2.115383,-0.946633 -2.115383,-2.115383"
       id="path2718" />
    <path
       style="fill:#4f81bd;fill-opacity:1;fill-rule:evenodd;stroke:none;stroke-width:0.264583"
       d="m 68.932384,68.708595 c 0,-1.166106 0.949278,-2.115386 2.115384,-2.115386 1.168749,0 2.115386,0.94928 2.115386,2.115386 0,1.16875 -0.946637,2.115384 -2.115386,2.115384 -1.166106,0 -2.115384,-0.946634 -2.115384,-2.115384 z"
       id="path2720" />
    <path
       style="fill:none;stroke:#385d8a;stroke-width:0.70601px;stroke-linecap:butt;stroke-linejoin:round;stroke-miterlimit:4;stroke-dasharray:none;stroke-opacity:1"
       d="m 68.932384,68.708595 c 0,-1.166106 0.949278,-2.115386 2.115384,-2.115386 1.168749,0 2.115386,0.94928 2.115386,2.115386 0,1.16875 -0.946637,2.115384 -2.115386,2.115384 -1.166106,0 -2.115384,-0.946634 -2.115384,-2.115384"
       id="path2722" />
    <path
       style="fill:#4f81bd;fill-opacity:1;fill-rule:evenodd;stroke:none;stroke-width:0.264583"
       d="m 73.163154,72.939365 c 0,-1.166106 0.949277,-2.115386 2.115383,-2.115386 1.168749,0 2.115386,0.94928 2.115386,2.115386 0,1.168749 -0.946637,2.115383 -2.115386,2.115383 -1.166106,0 -2.115383,-0.946634 -2.115383,-2.115383 z"
       id="path2724" />
    <path
       style="fill:none;stroke:#385d8a;stroke-width:0.70601px;stroke-linecap:butt;stroke-linejoin:round;stroke-miterlimit:4;stroke-dasharray:none;stroke-opacity:1"
       d="m 73.163154,72.939365 c 0,-1.166106 0.949277,-2.115386 2.115383,-2.115386 1.168749,0 2.115386,0.94928 2.115386,2.115386 0,1.168749 -0.946637,2.115383 -2.115386,2.115383 -1.166106,0 -2.115383,-0.946634 -2.115383,-2.115383"
       id="path2726" />
    <path
       style="fill:#4f81bd;fill-opacity:1;fill-rule:evenodd;stroke:none;stroke-width:0.264583"
       d="m 77.393923,77.170135 c 0,-1.166107 0.949278,-2.115387 2.115384,-2.115387 1.168749,0 2.115383,0.94928 2.115383,2.115387 0,1.168749 -0.946634,2.115383 -2.115383,2.115383 -1.166106,0 -2.115384,-0.946634 -2.115384,-2.115383 z"
       id="path2728" />
    <path
       style="fill:none;stroke:#385d8a;stroke-width:0.70601px;stroke-linecap:butt;stroke-linejoin:round;stroke-miterlimit:4;stroke-dasharray:none;stroke-opacity:1"
       d="m 77.393923,77.170135 c 0,-1.166107 0.949278,-2.115387 2.115384,-2.115387 1.168749,0 2.115383,0.94928 2.115383,2.115387 0,1.168749 -0.946634,2.115383 -2.115383,2.115383 -1.166106,0 -2.115384,-0.946634 -2.115384,-2.115383"
       id="path2730" />
    <path
       style="fill:#4f81bd;fill-opacity:1;fill-rule:evenodd;stroke:none;stroke-width:0.264583"
       d="m 38.511542,82.080619 c 0,-1.166103 0.94928,-2.115383 2.115386,-2.115383 1.168749,0 2.115384,0.94928 2.115384,2.115383 0,1.168752 -0.946635,2.115386 -2.115384,2.115386 -1.166106,0 -2.115386,-0.946634 -2.115386,-2.115386 z"
       id="path2732" />
    <path
       style="fill:none;stroke:#385d8a;stroke-width:0.70601px;stroke-linecap:butt;stroke-linejoin:round;stroke-miterlimit:4;stroke-dasharray:none;stroke-opacity:1"
       d="m 38.511542,82.080619 c 0,-1.166103 0.94928,-2.115383 2.115386,-2.115383 1.168749,0 2.115384,0.94928 2.115384,2.115383 0,1.168752 -0.946635,2.115386 -2.115384,2.115386 -1.166106,0 -2.115386,-0.946634 -2.115386,-2.115386"
       id="path2734" />
    <path
       style="fill:#4f81bd;fill-opacity:1;fill-rule:evenodd;stroke:none;stroke-width:0.264583"
       d="m 47.693922,43.323979 c 0,-1.166106 0.949279,-2.115384 2.115384,-2.115384 1.168751,0 2.115385,0.949278 2.115385,2.115384 0,1.16875 -0.946634,2.115385 -2.115385,2.115385 -1.166105,0 -2.115384,-0.946635 -2.115384,-2.115385 z"
       id="path2736" />
    <path
       style="fill:none;stroke:#385d8a;stroke-width:0.70601px;stroke-linecap:butt;stroke-linejoin:round;stroke-miterlimit:4;stroke-dasharray:none;stroke-opacity:1"
       d="m 47.693922,43.323979 c 0,-1.166106 0.949279,-2.115384 2.115384,-2.115384 1.168751,0 2.115385,0.949278 2.115385,2.115384 0,1.16875 -0.946634,2.115385 -2.115385,2.115385 -1.166105,0 -2.115384,-0.946635 -2.115384,-2.115385"
       id="path2738" />
    <path
       style="fill:#4f81bd;fill-opacity:1;fill-rule:evenodd;stroke:none;stroke-width:0.264583"
       d="m 51.924691,47.554748 c 0,-1.166105 0.949279,-2.115384 2.115385,-2.115384 1.168749,0 2.115383,0.949279 2.115383,2.115384 0,1.168751 -0.946634,2.115385 -2.115383,2.115385 -1.166106,0 -2.115385,-0.946634 -2.115385,-2.115385 z"
       id="path2740" />
    <path
       style="fill:none;stroke:#385d8a;stroke-width:0.70601px;stroke-linecap:butt;stroke-linejoin:round;stroke-miterlimit:4;stroke-dasharray:none;stroke-opacity:1"
       d="m 51.924691,47.554748 c 0,-1.166105 0.949279,-2.115384 2.115385,-2.115384 1.168749,0 2.115383,0.949279 2.115383,2.115384 0,1.168751 -0.946634,2.115385 -2.115383,2.115385 -1.166106,0 -2.115385,-0.946634 -2.115385,-2.115385"
       id="path2742" />
    <path
       style="fill:#4f81bd;fill-opacity:1;fill-rule:evenodd;stroke:none;stroke-width:0.264583"
       d="m 56.155459,51.785518 c 0,-1.166106 0.94928,-2.115385 2.115386,-2.115385 1.16875,0 2.115384,0.949279 2.115384,2.115385 0,1.16875 -0.946634,2.115385 -2.115384,2.115385 -1.166106,0 -2.115386,-0.946635 -2.115386,-2.115385 z"
       id="path2744" />
    <path
       style="fill:none;stroke:#385d8a;stroke-width:0.70601px;stroke-linecap:butt;stroke-linejoin:round;stroke-miterlimit:4;stroke-dasharray:none;stroke-opacity:1"
       d="m 56.155459,51.785518 c 0,-1.166106 0.94928,-2.115385 2.115386,-2.115385 1.16875,0 2.115384,0.949279 2.115384,2.115385 0,1.16875 -0.946634,2.115385 -2.115384,2.115385 -1.166106,0 -2.115386,-0.946635 -2.115386,-2.115385"
       id="path2746" />
    <path
       style="fill:#4f81bd;fill-opacity:1;fill-rule:evenodd;stroke:none;stroke-width:0.264583"
       d="m 60.386229,56.016287 c 0,-1.166105 0.94928,-2.115384 2.115386,-2.115384 1.168749,0 2.115383,0.949279 2.115383,2.115384 0,1.16875 -0.946634,2.115385 -2.115383,2.115385 -1.166106,0 -2.115386,-0.946635 -2.115386,-2.115385 z"
       id="path2748" />
    <path
       style="fill:none;stroke:#385d8a;stroke-width:0.70601px;stroke-linecap:butt;stroke-linejoin:round;stroke-miterlimit:4;stroke-dasharray:none;stroke-opacity:1"
       d="m 60.386229,56.016287 c 0,-1.166105 0.94928,-2.115384 2.115386,-2.115384 1.168749,0 2.115383,0.949279 2.115383,2.115384 0,1.16875 -0.946634,2.115385 -2.115383,2.115385 -1.166106,0 -2.115386,-0.946635 -2.115386,-2.115385"
       id="path2750" />
    <path
       style="fill:#4f81bd;fill-opacity:1;fill-rule:evenodd;stroke:none;stroke-width:0.264583"
       d="m 64.616998,60.247056 c 0,-1.166105 0.94928,-2.115384 2.115386,-2.115384 1.16875,0 2.115384,0.949279 2.115384,2.115384 0,1.16875 -0.946634,2.115385 -2.115384,2.115385 -1.166106,0 -2.115386,-0.946635 -2.115386,-2.115385 z"
       id="path2752" />
    <path
       style="fill:none;stroke:#385d8a;stroke-width:0.70601px;stroke-linecap:butt;stroke-linejoin:round;stroke-miterlimit:4;stroke-dasharray:none;stroke-opacity:1"
       d="m 64.616998,60.247056 c 0,-1.166105 0.94928,-2.115384 2.115386,-2.115384 1.16875,0 2.115384,0.949279 2.115384,2.115384 0,1.16875 -0.946634,2.115385 -2.115384,2.115385 -1.166106,0 -2.115386,-0.946635 -2.115386,-2.115385"
       id="path2754" />
    <path
       style="fill:#4f81bd;fill-opacity:1;fill-rule:evenodd;stroke:none;stroke-width:0.264583"
       d="m 68.847768,64.477826 c 0,-1.166106 0.94928,-2.115385 2.115386,-2.115385 1.168749,0 2.115383,0.949279 2.115383,2.115385 0,1.16875 -0.946634,2.115383 -2.115383,2.115383 -1.166106,0 -2.115386,-0.946633 -2.115386,-2.115383 z"
       id="path2756" />
    <path
       style="fill:none;stroke:#385d8a;stroke-width:0.70601px;stroke-linecap:butt;stroke-linejoin:round;stroke-miterlimit:4;stroke-dasharray:none;stroke-opacity:1"
       d="m 68.847768,64.477826 c 0,-1.166106 0.94928,-2.115385 2.115386,-2.115385 1.168749,0 2.115383,0.949279 2.115383,2.115385 0,1.16875 -0.946634,2.115383 -2.115383,2.115383 -1.166106,0 -2.115386,-0.946633 -2.115386,-2.115383"
       id="path2758" />
    <path
       style="fill:#4f81bd;fill-opacity:1;fill-rule:evenodd;stroke:none;stroke-width:0.264583"
       d="m 73.078537,68.708595 c 0,-1.166106 0.94928,-2.115386 2.115384,-2.115386 1.168752,0 2.115386,0.94928 2.115386,2.115386 0,1.16875 -0.946634,2.115384 -2.115386,2.115384 -1.166104,0 -2.115384,-0.946634 -2.115384,-2.115384 z"
       id="path2760" />
    <path
       style="fill:none;stroke:#385d8a;stroke-width:0.70601px;stroke-linecap:butt;stroke-linejoin:round;stroke-miterlimit:4;stroke-dasharray:none;stroke-opacity:1"
       d="m 73.078537,68.708595 c 0,-1.166106 0.94928,-2.115386 2.115384,-2.115386 1.168752,0 2.115386,0.94928 2.115386,2.115386 0,1.16875 -0.946634,2.115384 -2.115386,2.115384 -1.166104,0 -2.115384,-0.946634 -2.115384,-2.115384"
       id="path2762" />
    <path
       style="fill:#4f81bd;fill-opacity:1;fill-rule:evenodd;stroke:none;stroke-width:0.264583"
       d="m 77.309307,72.939365 c 0,-1.166106 0.949277,-2.115386 2.115383,-2.115386 1.168752,0 2.115386,0.94928 2.115386,2.115386 0,1.168749 -0.946634,2.115383 -2.115386,2.115383 -1.166106,0 -2.115383,-0.946634 -2.115383,-2.115383 z"
       id="path2764" />
    <path
       style="fill:none;stroke:#385d8a;stroke-width:0.70601px;stroke-linecap:butt;stroke-linejoin:round;stroke-miterlimit:4;stroke-dasharray:none;stroke-opacity:1"
       d="m 77.309307,72.939365 c 0,-1.166106 0.949277,-2.115386 2.115383,-2.115386 1.168752,0 2.115386,0.94928 2.115386,2.115386 0,1.168749 -0.946634,2.115383 -2.115386,2.115383 -1.166106,0 -2.115383,-0.946634 -2.115383,-2.115383"
       id="path2766" />
    <path
       style="fill:#4f81bd;fill-opacity:1;fill-rule:evenodd;stroke:none;stroke-width:0.264583"
       d="m 38.426928,77.849853 c 0,-1.166107 0.949278,-2.115387 2.115384,-2.115387 1.168752,0 2.115386,0.94928 2.115386,2.115387 0,1.168749 -0.946634,2.115383 -2.115386,2.115383 -1.166106,0 -2.115384,-0.946634 -2.115384,-2.115383 z"
       id="path2768" />
    <path
       style="fill:none;stroke:#385d8a;stroke-width:0.70601px;stroke-linecap:butt;stroke-linejoin:round;stroke-miterlimit:4;stroke-dasharray:none;stroke-opacity:1"
       d="m 38.426928,77.849853 c 0,-1.166107 0.949278,-2.115387 2.115384,-2.115387 1.168752,0 2.115386,0.94928 2.115386,2.115387 0,1.168749 -0.946634,2.115383 -2.115386,2.115383 -1.166106,0 -2.115384,-0.946634 -2.115384,-2.115383"
       id="path2770" />
    <path
       style="fill:#4f81bd;fill-opacity:1;fill-rule:evenodd;stroke:none;stroke-width:0.264583"
       d="m 42.657698,82.080619 c 0,-1.166103 0.949277,-2.115383 2.115383,-2.115383 1.16875,0 2.115386,0.94928 2.115386,2.115383 0,1.168752 -0.946636,2.115386 -2.115386,2.115386 -1.166106,0 -2.115383,-0.946634 -2.115383,-2.115386 z"
       id="path2772" />
    <path
       style="fill:none;stroke:#385d8a;stroke-width:0.70601px;stroke-linecap:butt;stroke-linejoin:round;stroke-miterlimit:4;stroke-dasharray:none;stroke-opacity:1"
       d="m 42.657698,82.080619 c 0,-1.166103 0.949277,-2.115383 2.115383,-2.115383 1.16875,0 2.115386,0.94928 2.115386,2.115383 0,1.168752 -0.946636,2.115386 -2.115386,2.115386 -1.166106,0 -2.115383,-0.946634 -2.115383,-2.115386"
       id="path2774" />
    <path
       style="fill:#4f81bd;fill-opacity:1;fill-rule:evenodd;stroke:none;stroke-width:0.264583"
       d="m 52.178537,43.323979 c 0,-1.166106 0.949279,-2.115384 2.115385,-2.115384 1.16875,0 2.115384,0.949278 2.115384,2.115384 0,1.16875 -0.946634,2.115385 -2.115384,2.115385 -1.166106,0 -2.115385,-0.946635 -2.115385,-2.115385 z"
       id="path2776" />
    <path
       style="fill:none;stroke:#385d8a;stroke-width:0.70601px;stroke-linecap:butt;stroke-linejoin:round;stroke-miterlimit:4;stroke-dasharray:none;stroke-opacity:1"
       d="m 52.178537,43.323979 c 0,-1.166106 0.949279,-2.115384 2.115385,-2.115384 1.16875,0 2.115384,0.949278 2.115384,2.115384 0,1.16875 -0.946634,2.115385 -2.115384,2.115385 -1.166106,0 -2.115385,-0.946635 -2.115385,-2.115385"
       id="path2778" />
    <path
       style="fill:#4f81bd;fill-opacity:1;fill-rule:evenodd;stroke:none;stroke-width:0.264583"
       d="m 56.409306,47.554748 c 0,-1.166105 0.94928,-2.115384 2.115386,-2.115384 1.168749,0 2.115383,0.949279 2.115383,2.115384 0,1.168751 -0.946634,2.115385 -2.115383,2.115385 -1.166106,0 -2.115386,-0.946634 -2.115386,-2.115385 z"
       id="path2780" />
    <path
       style="fill:none;stroke:#385d8a;stroke-width:0.70601px;stroke-linecap:butt;stroke-linejoin:round;stroke-miterlimit:4;stroke-dasharray:none;stroke-opacity:1"
       d="m 56.409306,47.554748 c 0,-1.166105 0.94928,-2.115384 2.115386,-2.115384 1.168749,0 2.115383,0.949279 2.115383,2.115384 0,1.168751 -0.946634,2.115385 -2.115383,2.115385 -1.166106,0 -2.115386,-0.946634 -2.115386,-2.115385"
       id="path2782" />
    <path
       style="fill:#4f81bd;fill-opacity:1;fill-rule:evenodd;stroke:none;stroke-width:0.264583"
       d="m 60.640075,51.785518 c 0,-1.166106 0.94928,-2.115385 2.115386,-2.115385 1.16875,0 2.115384,0.949279 2.115384,2.115385 0,1.16875 -0.946634,2.115385 -2.115384,2.115385 -1.166106,0 -2.115386,-0.946635 -2.115386,-2.115385 z"
       id="path2784" />
    <path
       style="fill:none;stroke:#385d8a;stroke-width:0.70601px;stroke-linecap:butt;stroke-linejoin:round;stroke-miterlimit:4;stroke-dasharray:none;stroke-opacity:1"
       d="m 60.640075,51.785518 c 0,-1.166106 0.94928,-2.115385 2.115386,-2.115385 1.16875,0 2.115384,0.949279 2.115384,2.115385 0,1.16875 -0.946634,2.115385 -2.115384,2.115385 -1.166106,0 -2.115386,-0.946635 -2.115386,-2.115385"
       id="path2786" />
    <path
       style="fill:#4f81bd;fill-opacity:1;fill-rule:evenodd;stroke:none;stroke-width:0.264583"
       d="m 64.870845,56.016287 c 0,-1.166105 0.94928,-2.115384 2.115386,-2.115384 1.168749,0 2.115383,0.949279 2.115383,2.115384 0,1.16875 -0.946634,2.115385 -2.115383,2.115385 -1.166106,0 -2.115386,-0.946635 -2.115386,-2.115385 z"
       id="path2788" />
    <path
       style="fill:none;stroke:#385d8a;stroke-width:0.70601px;stroke-linecap:butt;stroke-linejoin:round;stroke-miterlimit:4;stroke-dasharray:none;stroke-opacity:1"
       d="m 64.870845,56.016287 c 0,-1.166105 0.94928,-2.115384 2.115386,-2.115384 1.168749,0 2.115383,0.949279 2.115383,2.115384 0,1.16875 -0.946634,2.115385 -2.115383,2.115385 -1.166106,0 -2.115386,-0.946635 -2.115386,-2.115385"
       id="path2790" />
    <path
       style="fill:#4f81bd;fill-opacity:1;fill-rule:evenodd;stroke:none;stroke-width:0.264583"
       d="m 69.101614,60.247056 c 0,-1.166105 0.94928,-2.115384 2.115384,-2.115384 1.168752,0 2.115386,0.949279 2.115386,2.115384 0,1.16875 -0.946634,2.115385 -2.115386,2.115385 -1.166104,0 -2.115384,-0.946635 -2.115384,-2.115385 z"
       id="path2792" />
    <path
       style="fill:none;stroke:#385d8a;stroke-width:0.70601px;stroke-linecap:butt;stroke-linejoin:round;stroke-miterlimit:4;stroke-dasharray:none;stroke-opacity:1"
       d="m 69.101614,60.247056 c 0,-1.166105 0.94928,-2.115384 2.115384,-2.115384 1.168752,0 2.115386,0.949279 2.115386,2.115384 0,1.16875 -0.946634,2.115385 -2.115386,2.115385 -1.166104,0 -2.115384,-0.946635 -2.115384,-2.115385"
       id="path2794" />
    <path
       style="fill:#4f81bd;fill-opacity:1;fill-rule:evenodd;stroke:none;stroke-width:0.264583"
       d="m 73.332384,64.477826 c 0,-1.166106 0.949277,-2.115385 2.115383,-2.115385 1.168752,0 2.115386,0.949279 2.115386,2.115385 0,1.16875 -0.946634,2.115383 -2.115386,2.115383 -1.166106,0 -2.115383,-0.946633 -2.115383,-2.115383 z"
       id="path2796" />
    <path
       style="fill:none;stroke:#385d8a;stroke-width:0.70601px;stroke-linecap:butt;stroke-linejoin:round;stroke-miterlimit:4;stroke-dasharray:none;stroke-opacity:1"
       d="m 73.332384,64.477826 c 0,-1.166106 0.949277,-2.115385 2.115383,-2.115385 1.168752,0 2.115386,0.949279 2.115386,2.115385 0,1.16875 -0.946634,2.115383 -2.115386,2.115383 -1.166106,0 -2.115383,-0.946633 -2.115383,-2.115383"
       id="path2798" />
    <path
       style="fill:#4f81bd;fill-opacity:1;fill-rule:evenodd;stroke:none;stroke-width:0.264583"
       d="m 77.563153,68.708595 c 0,-1.166106 0.949278,-2.115386 2.115384,-2.115386 1.168749,0 2.115386,0.94928 2.115386,2.115386 0,1.16875 -0.946637,2.115384 -2.115386,2.115384 -1.166106,0 -2.115384,-0.946634 -2.115384,-2.115384 z"
       id="path2800" />
    <path
       style="fill:none;stroke:#385d8a;stroke-width:0.70601px;stroke-linecap:butt;stroke-linejoin:round;stroke-miterlimit:4;stroke-dasharray:none;stroke-opacity:1"
       d="m 77.563153,68.708595 c 0,-1.166106 0.949278,-2.115386 2.115384,-2.115386 1.168749,0 2.115386,0.94928 2.115386,2.115386 0,1.16875 -0.946637,2.115384 -2.115386,2.115384 -1.166106,0 -2.115384,-0.946634 -2.115384,-2.115384"
       id="path2802" />
    <path
       style="fill:#4f81bd;fill-opacity:1;fill-rule:evenodd;stroke:none;stroke-width:0.264583"
       d="m 38.680775,73.619083 c 0,-1.166106 0.949277,-2.115386 2.115383,-2.115386 1.16875,0 2.115386,0.94928 2.115386,2.115386 0,1.168749 -0.946636,2.115383 -2.115386,2.115383 -1.166106,0 -2.115383,-0.946634 -2.115383,-2.115383 z"
       id="path2804" />
    <path
       style="fill:none;stroke:#385d8a;stroke-width:0.70601px;stroke-linecap:butt;stroke-linejoin:round;stroke-miterlimit:4;stroke-dasharray:none;stroke-opacity:1"
       d="m 38.680775,73.619083 c 0,-1.166106 0.949277,-2.115386 2.115383,-2.115386 1.16875,0 2.115386,0.94928 2.115386,2.115386 0,1.168749 -0.946636,2.115383 -2.115386,2.115383 -1.166106,0 -2.115383,-0.946634 -2.115383,-2.115383"
       id="path2806" />
    <path
       style="fill:#4f81bd;fill-opacity:1;fill-rule:evenodd;stroke:none;stroke-width:0.264583"
       d="m 42.911544,77.849853 c 0,-1.166107 0.949278,-2.115387 2.115384,-2.115387 1.168749,0 2.115383,0.94928 2.115383,2.115387 0,1.168749 -0.946634,2.115383 -2.115383,2.115383 -1.166106,0 -2.115384,-0.946634 -2.115384,-2.115383 z"
       id="path2808" />
    <path
       style="fill:none;stroke:#385d8a;stroke-width:0.70601px;stroke-linecap:butt;stroke-linejoin:round;stroke-miterlimit:4;stroke-dasharray:none;stroke-opacity:1"
       d="m 42.911544,77.849853 c 0,-1.166107 0.949278,-2.115387 2.115384,-2.115387 1.168749,0 2.115383,0.94928 2.115383,2.115387 0,1.168749 -0.946634,2.115383 -2.115383,2.115383 -1.166106,0 -2.115384,-0.946634 -2.115384,-2.115383"
       id="path2810" />
    <path
       style="fill:#4f81bd;fill-opacity:1;fill-rule:evenodd;stroke:none;stroke-width:0.264583"
       d="m 47.142311,82.080619 c 0,-1.166103 0.94928,-2.115383 2.115386,-2.115383 1.16875,0 2.115384,0.94928 2.115384,2.115383 0,1.168752 -0.946634,2.115386 -2.115384,2.115386 -1.166106,0 -2.115386,-0.946634 -2.115386,-2.115386 z"
       id="path2812" />
    <path
       style="fill:none;stroke:#385d8a;stroke-width:0.70601px;stroke-linecap:butt;stroke-linejoin:round;stroke-miterlimit:4;stroke-dasharray:none;stroke-opacity:1"
       d="m 47.142311,82.080619 c 0,-1.166103 0.94928,-2.115383 2.115386,-2.115383 1.16875,0 2.115384,0.94928 2.115384,2.115383 0,1.168752 -0.946634,2.115386 -2.115384,2.115386 -1.166106,0 -2.115386,-0.946634 -2.115386,-2.115386"
       id="path2814" />
    <path
       style="fill:#4f81bd;fill-opacity:1;fill-rule:evenodd;stroke:none;stroke-width:0.264583"
       d="m 56.324692,43.323979 c 0,-1.166106 0.949277,-2.115384 2.115383,-2.115384 1.16875,0 2.115386,0.949278 2.115386,2.115384 0,1.16875 -0.946636,2.115385 -2.115386,2.115385 -1.166106,0 -2.115383,-0.946635 -2.115383,-2.115385 z"
       id="path2816" />
    <path
       style="fill:none;stroke:#385d8a;stroke-width:0.70601px;stroke-linecap:butt;stroke-linejoin:round;stroke-miterlimit:4;stroke-dasharray:none;stroke-opacity:1"
       d="m 56.324692,43.323979 c 0,-1.166106 0.949277,-2.115384 2.115383,-2.115384 1.16875,0 2.115386,0.949278 2.115386,2.115384 0,1.16875 -0.946636,2.115385 -2.115386,2.115385 -1.166106,0 -2.115383,-0.946635 -2.115383,-2.115385"
       id="path2818" />
    <path
       style="fill:#4f81bd;fill-opacity:1;fill-rule:evenodd;stroke:none;stroke-width:0.264583"
       d="m 60.555461,47.554748 c 0,-1.166105 0.949278,-2.115384 2.115384,-2.115384 1.168749,0 2.115383,0.949279 2.115383,2.115384 0,1.168751 -0.946634,2.115385 -2.115383,2.115385 -1.166106,0 -2.115384,-0.946634 -2.115384,-2.115385 z"
       id="path2820" />
    <path
       style="fill:none;stroke:#385d8a;stroke-width:0.70601px;stroke-linecap:butt;stroke-linejoin:round;stroke-miterlimit:4;stroke-dasharray:none;stroke-opacity:1"
       d="m 60.555461,47.554748 c 0,-1.166105 0.949278,-2.115384 2.115384,-2.115384 1.168749,0 2.115383,0.949279 2.115383,2.115384 0,1.168751 -0.946634,2.115385 -2.115383,2.115385 -1.166106,0 -2.115384,-0.946634 -2.115384,-2.115385"
       id="path2822" />
    <path
       style="fill:#4f81bd;fill-opacity:1;fill-rule:evenodd;stroke:none;stroke-width:0.264583"
       d="m 64.786228,51.785518 c 0,-1.166106 0.94928,-2.115385 2.115386,-2.115385 1.16875,0 2.115384,0.949279 2.115384,2.115385 0,1.16875 -0.946634,2.115385 -2.115384,2.115385 -1.166106,0 -2.115386,-0.946635 -2.115386,-2.115385 z"
       id="path2824" />
    <path
       style="fill:none;stroke:#385d8a;stroke-width:0.70601px;stroke-linecap:butt;stroke-linejoin:round;stroke-miterlimit:4;stroke-dasharray:none;stroke-opacity:1"
       d="m 64.786228,51.785518 c 0,-1.166106 0.94928,-2.115385 2.115386,-2.115385 1.16875,0 2.115384,0.949279 2.115384,2.115385 0,1.16875 -0.946634,2.115385 -2.115384,2.115385 -1.166106,0 -2.115386,-0.946635 -2.115386,-2.115385"
       id="path2826" />
    <path
       style="fill:#4f81bd;fill-opacity:1;fill-rule:evenodd;stroke:none;stroke-width:0.264583"
       d="m 69.016998,56.016287 c 0,-1.166105 0.94928,-2.115384 2.115386,-2.115384 1.168749,0 2.115383,0.949279 2.115383,2.115384 0,1.16875 -0.946634,2.115385 -2.115383,2.115385 -1.166106,0 -2.115386,-0.946635 -2.115386,-2.115385 z"
       id="path2828" />
    <path
       style="fill:none;stroke:#385d8a;stroke-width:0.70601px;stroke-linecap:butt;stroke-linejoin:round;stroke-miterlimit:4;stroke-dasharray:none;stroke-opacity:1"
       d="m 69.016998,56.016287 c 0,-1.166105 0.94928,-2.115384 2.115386,-2.115384 1.168749,0 2.115383,0.949279 2.115383,2.115384 0,1.16875 -0.946634,2.115385 -2.115383,2.115385 -1.166106,0 -2.115386,-0.946635 -2.115386,-2.115385"
       id="path2830" />
    <path
       style="fill:#ff0000;fill-opacity:1;fill-rule:evenodd;stroke:none;stroke-width:0.264583"
       d="m 73.247767,60.247056 c 0,-1.166105 0.94928,-2.115384 2.115386,-2.115384 1.16875,0 2.115384,0.949279 2.115384,2.115384 0,1.16875 -0.946634,2.115385 -2.115384,2.115385 -1.166106,0 -2.115386,-0.946635 -2.115386,-2.115385 z"
       id="path2832" />
    <path
       style="fill:#4f81bd;stroke:#385d8a;stroke-width:0.70601px;stroke-linecap:butt;stroke-linejoin:round;stroke-miterlimit:4;stroke-dasharray:none;stroke-opacity:1;fill-opacity:1"
       d="m 73.247767,60.247056 c 0,-1.166105 0.94928,-2.115384 2.115386,-2.115384 1.16875,0 2.115384,0.949279 2.115384,2.115384 0,1.16875 -0.946634,2.115385 -2.115384,2.115385 -1.166106,0 -2.115386,-0.946635 -2.115386,-2.115385"
       id="path2834" />
    <path
       style="fill:#4f81bd;fill-opacity:1;fill-rule:evenodd;stroke:none;stroke-width:0.264583"
       d="m 77.478537,64.477826 c 0,-1.166106 0.94928,-2.115385 2.115386,-2.115385 1.168749,0 2.115383,0.949279 2.115383,2.115385 0,1.16875 -0.946634,2.115383 -2.115383,2.115383 -1.166106,0 -2.115386,-0.946633 -2.115386,-2.115383 z"
       id="path2836" />
    <path
       style="fill:none;stroke:#385d8a;stroke-width:0.70601px;stroke-linecap:butt;stroke-linejoin:round;stroke-miterlimit:4;stroke-dasharray:none;stroke-opacity:1"
       d="m 77.478537,64.477826 c 0,-1.166106 0.94928,-2.115385 2.115386,-2.115385 1.168749,0 2.115383,0.949279 2.115383,2.115385 0,1.16875 -0.946634,2.115383 -2.115383,2.115383 -1.166106,0 -2.115386,-0.946633 -2.115386,-2.115383"
       id="path2838" />
    <path
       style="fill:#4f81bd;fill-opacity:1;fill-rule:evenodd;stroke:none;stroke-width:0.264583"
       d="m 38.596158,69.388313 c 0,-1.166106 0.94928,-2.115386 2.115384,-2.115386 1.168752,0 2.115386,0.94928 2.115386,2.115386 0,1.16875 -0.946634,2.115384 -2.115386,2.115384 -1.166104,0 -2.115384,-0.946634 -2.115384,-2.115384 z"
       id="path2840" />
    <path
       style="fill:none;stroke:#385d8a;stroke-width:0.70601px;stroke-linecap:butt;stroke-linejoin:round;stroke-miterlimit:4;stroke-dasharray:none;stroke-opacity:1"
       d="m 38.596158,69.388313 c 0,-1.166106 0.94928,-2.115386 2.115384,-2.115386 1.168752,0 2.115386,0.94928 2.115386,2.115386 0,1.16875 -0.946634,2.115384 -2.115386,2.115384 -1.166104,0 -2.115384,-0.946634 -2.115384,-2.115384"
       id="path2842" />
    <path
       style="fill:#4f81bd;fill-opacity:1;fill-rule:evenodd;stroke:none;stroke-width:0.264583"
       d="m 42.826928,73.619083 c 0,-1.166106 0.949277,-2.115386 2.115383,-2.115386 1.168752,0 2.115386,0.94928 2.115386,2.115386 0,1.168749 -0.946634,2.115383 -2.115386,2.115383 -1.166106,0 -2.115383,-0.946634 -2.115383,-2.115383 z"
       id="path2844" />
    <path
       style="fill:none;stroke:#385d8a;stroke-width:0.70601px;stroke-linecap:butt;stroke-linejoin:round;stroke-miterlimit:4;stroke-dasharray:none;stroke-opacity:1"
       d="m 42.826928,73.619083 c 0,-1.166106 0.949277,-2.115386 2.115383,-2.115386 1.168752,0 2.115386,0.94928 2.115386,2.115386 0,1.168749 -0.946634,2.115383 -2.115386,2.115383 -1.166106,0 -2.115383,-0.946634 -2.115383,-2.115383"
       id="path2846" />
    <path
       style="fill:#4f81bd;fill-opacity:1;fill-rule:evenodd;stroke:none;stroke-width:0.264583"
       d="m 47.057697,77.849853 c 0,-1.166107 0.949278,-2.115387 2.115384,-2.115387 1.168752,0 2.115386,0.94928 2.115386,2.115387 0,1.168749 -0.946634,2.115383 -2.115386,2.115383 -1.166106,0 -2.115384,-0.946634 -2.115384,-2.115383 z"
       id="path2848" />
    <path
       style="fill:none;stroke:#385d8a;stroke-width:0.70601px;stroke-linecap:butt;stroke-linejoin:round;stroke-miterlimit:4;stroke-dasharray:none;stroke-opacity:1"
       d="m 47.057697,77.849853 c 0,-1.166107 0.949278,-2.115387 2.115384,-2.115387 1.168752,0 2.115386,0.94928 2.115386,2.115387 0,1.168749 -0.946634,2.115383 -2.115386,2.115383 -1.166106,0 -2.115384,-0.946634 -2.115384,-2.115383"
       id="path2850" />
    <path
       style="fill:#4f81bd;fill-opacity:1;fill-rule:evenodd;stroke:none;stroke-width:0.264583"
       d="m 51.288467,82.080619 c 0,-1.166103 0.949277,-2.115383 2.115383,-2.115383 1.16875,0 2.115387,0.94928 2.115387,2.115383 0,1.168752 -0.946637,2.115386 -2.115387,2.115386 -1.166106,0 -2.115383,-0.946634 -2.115383,-2.115386 z"
       id="path2852" />
    <path
       style="fill:none;stroke:#385d8a;stroke-width:0.70601px;stroke-linecap:butt;stroke-linejoin:round;stroke-miterlimit:4;stroke-dasharray:none;stroke-opacity:1"
       d="m 51.288467,82.080619 c 0,-1.166103 0.949277,-2.115383 2.115383,-2.115383 1.16875,0 2.115387,0.94928 2.115387,2.115383 0,1.168752 -0.946637,2.115386 -2.115387,2.115386 -1.166106,0 -2.115383,-0.946634 -2.115383,-2.115386"
       id="path2854" />
    <path
       style="fill:#4f81bd;fill-opacity:1;fill-rule:evenodd;stroke:none;stroke-width:0.264583"
       d="m 60.259305,43.323979 c 0,-1.166106 0.94928,-2.115384 2.115387,-2.115384 1.168749,0 2.115383,0.949278 2.115383,2.115384 0,1.16875 -0.946634,2.115385 -2.115383,2.115385 -1.166107,0 -2.115387,-0.946635 -2.115387,-2.115385 z"
       id="path2856" />
    <path
       style="fill:none;stroke:#385d8a;stroke-width:0.70601px;stroke-linecap:butt;stroke-linejoin:round;stroke-miterlimit:4;stroke-dasharray:none;stroke-opacity:1"
       d="m 60.259305,43.323979 c 0,-1.166106 0.94928,-2.115384 2.115387,-2.115384 1.168749,0 2.115383,0.949278 2.115383,2.115384 0,1.16875 -0.946634,2.115385 -2.115383,2.115385 -1.166107,0 -2.115387,-0.946635 -2.115387,-2.115385"
       id="path2858" />
    <path
       style="fill:#4f81bd;fill-opacity:1;fill-rule:evenodd;stroke:none;stroke-width:0.264583"
       d="m 64.490075,47.554748 c 0,-1.166105 0.94928,-2.115384 2.115386,-2.115384 1.168749,0 2.115383,0.949279 2.115383,2.115384 0,1.168751 -0.946634,2.115385 -2.115383,2.115385 -1.166106,0 -2.115386,-0.946634 -2.115386,-2.115385 z"
       id="path2860" />
    <path
       style="fill:none;stroke:#385d8a;stroke-width:0.70601px;stroke-linecap:butt;stroke-linejoin:round;stroke-miterlimit:4;stroke-dasharray:none;stroke-opacity:1"
       d="m 64.490075,47.554748 c 0,-1.166105 0.94928,-2.115384 2.115386,-2.115384 1.168749,0 2.115383,0.949279 2.115383,2.115384 0,1.168751 -0.946634,2.115385 -2.115383,2.115385 -1.166106,0 -2.115386,-0.946634 -2.115386,-2.115385"
       id="path2862" />
    <path
       style="fill:#4f81bd;fill-opacity:1;fill-rule:evenodd;stroke:none;stroke-width:0.264583"
       d="m 68.720844,51.785518 c 0,-1.166106 0.94928,-2.115385 2.115387,-2.115385 1.168749,0 2.115383,0.949279 2.115383,2.115385 0,1.16875 -0.946634,2.115385 -2.115383,2.115385 -1.166107,0 -2.115387,-0.946635 -2.115387,-2.115385 z"
       id="path2864" />
    <path
       style="fill:none;stroke:#385d8a;stroke-width:0.70601px;stroke-linecap:butt;stroke-linejoin:round;stroke-miterlimit:4;stroke-dasharray:none;stroke-opacity:1"
       d="m 68.720844,51.785518 c 0,-1.166106 0.94928,-2.115385 2.115387,-2.115385 1.168749,0 2.115383,0.949279 2.115383,2.115385 0,1.16875 -0.946634,2.115385 -2.115383,2.115385 -1.166107,0 -2.115387,-0.946635 -2.115387,-2.115385"
       id="path2866" />
    <path
       style="fill:#4f81bd;fill-opacity:1;fill-rule:evenodd;stroke:none;stroke-width:0.264583"
       d="m 72.951614,56.016287 c 0,-1.166105 0.94928,-2.115384 2.115386,-2.115384 1.168749,0 2.115384,0.949279 2.115384,2.115384 0,1.16875 -0.946635,2.115385 -2.115384,2.115385 -1.166106,0 -2.115386,-0.946635 -2.115386,-2.115385 z"
       id="path2868" />
    <path
       style="fill:none;stroke:#385d8a;stroke-width:0.70601px;stroke-linecap:butt;stroke-linejoin:round;stroke-miterlimit:4;stroke-dasharray:none;stroke-opacity:1"
       d="m 72.951614,56.016287 c 0,-1.166105 0.94928,-2.115384 2.115386,-2.115384 1.168749,0 2.115384,0.949279 2.115384,2.115384 0,1.16875 -0.946635,2.115385 -2.115384,2.115385 -1.166106,0 -2.115386,-0.946635 -2.115386,-2.115385"
       id="path2870" />
    <path
       style="fill:#4f81bd;fill-opacity:1;fill-rule:evenodd;stroke:none;stroke-width:0.264583"
       d="m 77.182384,60.247056 c 0,-1.166105 0.94928,-2.115384 2.115383,-2.115384 1.168752,0 2.115386,0.949279 2.115386,2.115384 0,1.16875 -0.946634,2.115385 -2.115386,2.115385 -1.166103,0 -2.115383,-0.946635 -2.115383,-2.115385 z"
       id="path2872" />
    <path
       style="fill:none;stroke:#385d8a;stroke-width:0.70601px;stroke-linecap:butt;stroke-linejoin:round;stroke-miterlimit:4;stroke-dasharray:none;stroke-opacity:1"
       d="m 77.182384,60.247056 c 0,-1.166105 0.94928,-2.115384 2.115383,-2.115384 1.168752,0 2.115386,0.949279 2.115386,2.115384 0,1.16875 -0.946634,2.115385 -2.115386,2.115385 -1.166103,0 -2.115383,-0.946635 -2.115383,-2.115385"
       id="path2874" />
    <path
       style="fill:#4f81bd;fill-opacity:1;fill-rule:evenodd;stroke:none;stroke-width:0.264583"
       d="m 38.300005,65.157544 c 0,-1.166106 0.949277,-2.115385 2.115383,-2.115385 1.168752,0 2.115387,0.949279 2.115387,2.115385 0,1.16875 -0.946635,2.115383 -2.115387,2.115383 -1.166106,0 -2.115383,-0.946633 -2.115383,-2.115383 z"
       id="path2876" />
    <path
       style="fill:none;stroke:#385d8a;stroke-width:0.70601px;stroke-linecap:butt;stroke-linejoin:round;stroke-miterlimit:4;stroke-dasharray:none;stroke-opacity:1"
       d="m 38.300005,65.157544 c 0,-1.166106 0.949277,-2.115385 2.115383,-2.115385 1.168752,0 2.115387,0.949279 2.115387,2.115385 0,1.16875 -0.946635,2.115383 -2.115387,2.115383 -1.166106,0 -2.115383,-0.946633 -2.115383,-2.115383"
       id="path2878" />
    <path
       style="fill:#4f81bd;fill-opacity:1;fill-rule:evenodd;stroke:none;stroke-width:0.264583"
       d="m 42.530775,69.388313 c 0,-1.166106 0.949277,-2.115386 2.115383,-2.115386 1.168749,0 2.115386,0.94928 2.115386,2.115386 0,1.16875 -0.946637,2.115384 -2.115386,2.115384 -1.166106,0 -2.115383,-0.946634 -2.115383,-2.115384 z"
       id="path2880" />
    <path
       style="fill:none;stroke:#385d8a;stroke-width:0.70601px;stroke-linecap:butt;stroke-linejoin:round;stroke-miterlimit:4;stroke-dasharray:none;stroke-opacity:1"
       d="m 42.530775,69.388313 c 0,-1.166106 0.949277,-2.115386 2.115383,-2.115386 1.168749,0 2.115386,0.94928 2.115386,2.115386 0,1.16875 -0.946637,2.115384 -2.115386,2.115384 -1.166106,0 -2.115383,-0.946634 -2.115383,-2.115384"
       id="path2882" />
    <path
       style="fill:#4f81bd;fill-opacity:1;fill-rule:evenodd;stroke:none;stroke-width:0.264583"
       d="m 46.761544,73.619083 c 0,-1.166106 0.949277,-2.115386 2.115384,-2.115386 1.168749,0 2.115386,0.94928 2.115386,2.115386 0,1.168749 -0.946637,2.115383 -2.115386,2.115383 -1.166107,0 -2.115384,-0.946634 -2.115384,-2.115383 z"
       id="path2884" />
    <path
       style="fill:none;stroke:#385d8a;stroke-width:0.70601px;stroke-linecap:butt;stroke-linejoin:round;stroke-miterlimit:4;stroke-dasharray:none;stroke-opacity:1"
       d="m 46.761544,73.619083 c 0,-1.166106 0.949277,-2.115386 2.115384,-2.115386 1.168749,0 2.115386,0.94928 2.115386,2.115386 0,1.168749 -0.946637,2.115383 -2.115386,2.115383 -1.166107,0 -2.115384,-0.946634 -2.115384,-2.115383"
       id="path2886" />
    <path
       style="fill:#4f81bd;fill-opacity:1;fill-rule:evenodd;stroke:none;stroke-width:0.264583"
       d="m 50.992314,77.849853 c 0,-1.166107 0.949277,-2.115387 2.115383,-2.115387 1.168749,0 2.115383,0.94928 2.115383,2.115387 0,1.168749 -0.946634,2.115383 -2.115383,2.115383 -1.166106,0 -2.115383,-0.946634 -2.115383,-2.115383 z"
       id="path2888" />
    <path
       style="fill:none;stroke:#385d8a;stroke-width:0.70601px;stroke-linecap:butt;stroke-linejoin:round;stroke-miterlimit:4;stroke-dasharray:none;stroke-opacity:1"
       d="m 50.992314,77.849853 c 0,-1.166107 0.949277,-2.115387 2.115383,-2.115387 1.168749,0 2.115383,0.94928 2.115383,2.115387 0,1.168749 -0.946634,2.115383 -2.115383,2.115383 -1.166106,0 -2.115383,-0.946634 -2.115383,-2.115383"
       id="path2890" />
    <path
       style="fill:#4f81bd;fill-opacity:1;fill-rule:evenodd;stroke:none;stroke-width:0.264583"
       d="m 55.22308,82.080619 c 0,-1.166103 0.94928,-2.115383 2.115392,-2.115383 1.16874,0 2.11538,0.94928 2.11538,2.115383 0,1.168752 -0.94664,2.115386 -2.11538,2.115386 -1.166112,0 -2.115392,-0.946634 -2.115392,-2.115386 z"
       id="path2892" />
    <path
       style="fill:none;stroke:#385d8a;stroke-width:0.70601px;stroke-linecap:butt;stroke-linejoin:round;stroke-miterlimit:4;stroke-dasharray:none;stroke-opacity:1"
       d="m 55.22308,82.080619 c 0,-1.166103 0.94928,-2.115383 2.115392,-2.115383 1.16874,0 2.11538,0.94928 2.11538,2.115383 0,1.168752 -0.94664,2.115386 -2.11538,2.115386 -1.166112,0 -2.115392,-0.946634 -2.115392,-2.115386"
       id="path2894" />
    <path
       style="fill:#4f81bd;fill-opacity:1;fill-rule:evenodd;stroke:none;stroke-width:0.264583"
       d="m 64.870845,43.323979 c 0,-1.166106 0.94928,-2.115384 2.115386,-2.115384 1.168749,0 2.115383,0.949278 2.115383,2.115384 0,1.16875 -0.946634,2.115385 -2.115383,2.115385 -1.166106,0 -2.115386,-0.946635 -2.115386,-2.115385 z"
       id="path2896" />
    <path
       style="fill:none;stroke:#385d8a;stroke-width:0.70601px;stroke-linecap:butt;stroke-linejoin:round;stroke-miterlimit:4;stroke-dasharray:none;stroke-opacity:1"
       d="m 64.870845,43.323979 c 0,-1.166106 0.94928,-2.115384 2.115386,-2.115384 1.168749,0 2.115383,0.949278 2.115383,2.115384 0,1.16875 -0.946634,2.115385 -2.115383,2.115385 -1.166106,0 -2.115386,-0.946635 -2.115386,-2.115385"
       id="path2898" />
    <path
       style="fill:#4f81bd;fill-opacity:1;fill-rule:evenodd;stroke:none;stroke-width:0.264583"
       d="m 69.101614,47.554748 c 0,-1.166105 0.94928,-2.115384 2.115384,-2.115384 1.168752,0 2.115386,0.949279 2.115386,2.115384 0,1.168751 -0.946634,2.115385 -2.115386,2.115385 -1.166104,0 -2.115384,-0.946634 -2.115384,-2.115385 z"
       id="path2900" />
    <path
       style="fill:none;stroke:#385d8a;stroke-width:0.70601px;stroke-linecap:butt;stroke-linejoin:round;stroke-miterlimit:4;stroke-dasharray:none;stroke-opacity:1"
       d="m 69.101614,47.554748 c 0,-1.166105 0.94928,-2.115384 2.115384,-2.115384 1.168752,0 2.115386,0.949279 2.115386,2.115384 0,1.168751 -0.946634,2.115385 -2.115386,2.115385 -1.166104,0 -2.115384,-0.946634 -2.115384,-2.115385"
       id="path2902" />
    <path
       style="fill:#4f81bd;fill-opacity:1;fill-rule:evenodd;stroke:none;stroke-width:0.264583"
       d="m 73.332384,51.785518 c 0,-1.166106 0.949277,-2.115385 2.115383,-2.115385 1.168752,0 2.115386,0.949279 2.115386,2.115385 0,1.16875 -0.946634,2.115385 -2.115386,2.115385 -1.166106,0 -2.115383,-0.946635 -2.115383,-2.115385 z"
       id="path2904" />
    <path
       style="fill:none;stroke:#385d8a;stroke-width:0.70601px;stroke-linecap:butt;stroke-linejoin:round;stroke-miterlimit:4;stroke-dasharray:none;stroke-opacity:1"
       d="m 73.332384,51.785518 c 0,-1.166106 0.949277,-2.115385 2.115383,-2.115385 1.168752,0 2.115386,0.949279 2.115386,2.115385 0,1.16875 -0.946634,2.115385 -2.115386,2.115385 -1.166106,0 -2.115383,-0.946635 -2.115383,-2.115385"
       id="path2906" />
    <path
       style="fill:#4f81bd;fill-opacity:1;fill-rule:evenodd;stroke:none;stroke-width:0.264583"
       d="m 77.563153,56.016287 c 0,-1.166105 0.949278,-2.115384 2.115384,-2.115384 1.168749,0 2.115386,0.949279 2.115386,2.115384 0,1.16875 -0.946637,2.115385 -2.115386,2.115385 -1.166106,0 -2.115384,-0.946635 -2.115384,-2.115385 z"
       id="path2908" />
    <path
       style="fill:none;stroke:#385d8a;stroke-width:0.70601px;stroke-linecap:butt;stroke-linejoin:round;stroke-miterlimit:4;stroke-dasharray:none;stroke-opacity:1"
       d="m 77.563153,56.016287 c 0,-1.166105 0.949278,-2.115384 2.115384,-2.115384 1.168749,0 2.115386,0.949279 2.115386,2.115384 0,1.16875 -0.946637,2.115385 -2.115386,2.115385 -1.166106,0 -2.115384,-0.946635 -2.115384,-2.115385"
       id="path2910" />
    <path
       style="fill:#4f81bd;fill-opacity:1;fill-rule:evenodd;stroke:none;stroke-width:0.264583"
       d="m 38.680775,60.926774 c 0,-1.166105 0.949277,-2.115384 2.115383,-2.115384 1.16875,0 2.115386,0.949279 2.115386,2.115384 0,1.16875 -0.946636,2.115385 -2.115386,2.115385 -1.166106,0 -2.115383,-0.946635 -2.115383,-2.115385 z"
       id="path2912" />
    <path
       style="fill:none;stroke:#385d8a;stroke-width:0.70601px;stroke-linecap:butt;stroke-linejoin:round;stroke-miterlimit:4;stroke-dasharray:none;stroke-opacity:1"
       d="m 38.680775,60.926774 c 0,-1.166105 0.949277,-2.115384 2.115383,-2.115384 1.16875,0 2.115386,0.949279 2.115386,2.115384 0,1.16875 -0.946636,2.115385 -2.115386,2.115385 -1.166106,0 -2.115383,-0.946635 -2.115383,-2.115385"
       id="path2914" />
    <path
       style="fill:#4f81bd;fill-opacity:1;fill-rule:evenodd;stroke:none;stroke-width:0.264583"
       d="m 42.911544,65.157544 c 0,-1.166106 0.949278,-2.115385 2.115384,-2.115385 1.168749,0 2.115383,0.949279 2.115383,2.115385 0,1.16875 -0.946634,2.115383 -2.115383,2.115383 -1.166106,0 -2.115384,-0.946633 -2.115384,-2.115383 z"
       id="path2916" />
    <path
       style="fill:none;stroke:#385d8a;stroke-width:0.70601px;stroke-linecap:butt;stroke-linejoin:round;stroke-miterlimit:4;stroke-dasharray:none;stroke-opacity:1"
       d="m 42.911544,65.157544 c 0,-1.166106 0.949278,-2.115385 2.115384,-2.115385 1.168749,0 2.115383,0.949279 2.115383,2.115385 0,1.16875 -0.946634,2.115383 -2.115383,2.115383 -1.166106,0 -2.115384,-0.946633 -2.115384,-2.115383"
       id="path2918" />
    <path
       style="fill:#4f81bd;fill-opacity:1;fill-rule:evenodd;stroke:none;stroke-width:0.264583"
       d="m 47.142311,69.388313 c 0,-1.166106 0.94928,-2.115386 2.115386,-2.115386 1.16875,0 2.115384,0.94928 2.115384,2.115386 0,1.16875 -0.946634,2.115384 -2.115384,2.115384 -1.166106,0 -2.115386,-0.946634 -2.115386,-2.115384 z"
       id="path2920" />
    <path
       style="fill:none;stroke:#385d8a;stroke-width:0.70601px;stroke-linecap:butt;stroke-linejoin:round;stroke-miterlimit:4;stroke-dasharray:none;stroke-opacity:1"
       d="m 47.142311,69.388313 c 0,-1.166106 0.94928,-2.115386 2.115386,-2.115386 1.16875,0 2.115384,0.94928 2.115384,2.115386 0,1.16875 -0.946634,2.115384 -2.115384,2.115384 -1.166106,0 -2.115386,-0.946634 -2.115386,-2.115384"
       id="path2922" />
    <path
       style="fill:#4f81bd;fill-opacity:1;fill-rule:evenodd;stroke:none;stroke-width:0.264583"
       d="m 51.373081,73.619083 c 0,-1.166106 0.94928,-2.115386 2.115386,-2.115386 1.168749,0 2.115383,0.94928 2.115383,2.115386 0,1.168749 -0.946634,2.115383 -2.115383,2.115383 -1.166106,0 -2.115386,-0.946634 -2.115386,-2.115383 z"
       id="path2924" />
    <path
       style="fill:none;stroke:#385d8a;stroke-width:0.70601px;stroke-linecap:butt;stroke-linejoin:round;stroke-miterlimit:4;stroke-dasharray:none;stroke-opacity:1"
       d="m 51.373081,73.619083 c 0,-1.166106 0.94928,-2.115386 2.115386,-2.115386 1.168749,0 2.115383,0.94928 2.115383,2.115386 0,1.168749 -0.946634,2.115383 -2.115383,2.115383 -1.166106,0 -2.115386,-0.946634 -2.115386,-2.115383"
       id="path2926" />
    <path
       style="fill:#4f81bd;fill-opacity:1;fill-rule:evenodd;stroke:none;stroke-width:0.264583"
       d="m 55.60385,77.849853 c 0,-1.166107 0.94928,-2.115387 2.115382,-2.115387 1.16875,0 2.11539,0.94928 2.11539,2.115387 0,1.168749 -0.94664,2.115383 -2.11539,2.115383 -1.166102,0 -2.115382,-0.946634 -2.115382,-2.115383 z"
       id="path2928" />
    <path
       style="fill:none;stroke:#385d8a;stroke-width:0.70601px;stroke-linecap:butt;stroke-linejoin:round;stroke-miterlimit:4;stroke-dasharray:none;stroke-opacity:1"
       d="m 55.60385,77.849853 c 0,-1.166107 0.94928,-2.115387 2.115382,-2.115387 1.16875,0 2.11539,0.94928 2.11539,2.115387 0,1.168749 -0.94664,2.115383 -2.11539,2.115383 -1.166102,0 -2.115382,-0.946634 -2.115382,-2.115383"
       id="path2930" />
    <path
       style="fill:#4f81bd;fill-opacity:1;fill-rule:evenodd;stroke:none;stroke-width:0.264583"
       d="m 59.834622,82.080619 c 0,-1.16346 0.95192,-2.115383 2.11538,-2.115383 1.16875,0 2.11539,0.951923 2.11539,2.115383 0,1.168752 -0.94664,2.115386 -2.11539,2.115386 -1.16346,0 -2.11538,-0.946634 -2.11538,-2.115386 z"
       id="path2932" />
    <path
       style="fill:none;stroke:#385d8a;stroke-width:0.703365px;stroke-linecap:butt;stroke-linejoin:round;stroke-miterlimit:4;stroke-dasharray:none;stroke-opacity:1"
       d="m 59.834622,82.080619 c 0,-1.16346 0.95192,-2.115383 2.11538,-2.115383 1.16875,0 2.11539,0.951923 2.11539,2.115383 0,1.168752 -0.94664,2.115386 -2.11539,2.115386 -1.16346,0 -2.11538,-0.946634 -2.11538,-2.115386"
       id="path2934" />
    <path
       style="fill:#4f81bd;fill-opacity:1;fill-rule:evenodd;stroke:none;stroke-width:0.264583"
       d="m 68.932384,43.027825 c 0,-1.166105 0.949278,-2.115384 2.115384,-2.115384 1.168749,0 2.115386,0.949279 2.115386,2.115384 0,1.16875 -0.946637,2.115385 -2.115386,2.115385 -1.166106,0 -2.115384,-0.946635 -2.115384,-2.115385 z"
       id="path2936" />
    <path
       transform="matrix(0.26458333,0,0,0.26458333,26.920845,40.108595)"
       style="fill:none;stroke:#385d8a;stroke-width:2.66838px;stroke-linecap:butt;stroke-linejoin:round;stroke-miterlimit:4;stroke-dasharray:none;stroke-opacity:1"
       clip-path="url(#clipEmfPath1)"
       d="m 158.78377,11.033313 c 0,-4.4073287 3.58782,-7.9951543 7.99515,-7.9951543 4.41732,0 7.99516,3.5878256 7.99516,7.9951543 0,4.417323 -3.57784,7.995155 -7.99516,7.995155 -4.40733,0 -7.99515,-3.577832 -7.99515,-7.995155"
       id="path2938" />
    <path
       style="fill:#4f81bd;fill-opacity:1;fill-rule:evenodd;stroke:none;stroke-width:0.264583"
       d="m 73.163154,47.258595 c 0,-1.166106 0.949277,-2.115385 2.115383,-2.115385 1.168749,0 2.115386,0.949279 2.115386,2.115385 0,1.16875 -0.946637,2.115384 -2.115386,2.115384 -1.166106,0 -2.115383,-0.946634 -2.115383,-2.115384 z"
       id="path2940" />
    <path
       style="fill:none;stroke:#385d8a;stroke-width:0.70601px;stroke-linecap:butt;stroke-linejoin:round;stroke-miterlimit:4;stroke-dasharray:none;stroke-opacity:1"
       d="m 73.163154,47.258595 c 0,-1.166106 0.949277,-2.115385 2.115383,-2.115385 1.168749,0 2.115386,0.949279 2.115386,2.115385 0,1.16875 -0.946637,2.115384 -2.115386,2.115384 -1.166106,0 -2.115383,-0.946634 -2.115383,-2.115384"
       id="path2942" />
    <path
       style="fill:#4f81bd;fill-opacity:1;fill-rule:evenodd;stroke:none;stroke-width:0.264583"
       d="m 77.393923,51.489364 c 0,-1.166106 0.949278,-2.115385 2.115384,-2.115385 1.168749,0 2.115383,0.949279 2.115383,2.115385 0,1.16875 -0.946634,2.115385 -2.115383,2.115385 -1.166106,0 -2.115384,-0.946635 -2.115384,-2.115385 z"
       id="path2944" />
    <path
       style="fill:none;stroke:#385d8a;stroke-width:0.70601px;stroke-linecap:butt;stroke-linejoin:round;stroke-miterlimit:4;stroke-dasharray:none;stroke-opacity:1"
       d="m 77.393923,51.489364 c 0,-1.166106 0.949278,-2.115385 2.115384,-2.115385 1.168749,0 2.115383,0.949279 2.115383,2.115385 0,1.16875 -0.946634,2.115385 -2.115383,2.115385 -1.166106,0 -2.115384,-0.946635 -2.115384,-2.115385"
       id="path2946" />
    <path
       style="fill:#4f81bd;fill-opacity:1;fill-rule:evenodd;stroke:none;stroke-width:0.264583"
       d="m 38.511542,56.399851 c 0,-1.166105 0.94928,-2.115384 2.115386,-2.115384 1.168749,0 2.115384,0.949279 2.115384,2.115384 0,1.168751 -0.946635,2.115385 -2.115384,2.115385 -1.166106,0 -2.115386,-0.946634 -2.115386,-2.115385 z"
       id="path2948" />
    <path
       style="fill:none;stroke:#385d8a;stroke-width:0.70601px;stroke-linecap:butt;stroke-linejoin:round;stroke-miterlimit:4;stroke-dasharray:none;stroke-opacity:1"
       d="m 38.511542,56.399851 c 0,-1.166105 0.94928,-2.115384 2.115386,-2.115384 1.168749,0 2.115384,0.949279 2.115384,2.115384 0,1.168751 -0.946635,2.115385 -2.115384,2.115385 -1.166106,0 -2.115386,-0.946634 -2.115386,-2.115385"
       id="path2950" />
    <path
       style="fill:#4f81bd;fill-opacity:1;fill-rule:evenodd;stroke:none;stroke-width:0.264583"
       d="m 42.742312,60.630621 c 0,-1.166106 0.94928,-2.115385 2.115386,-2.115385 1.168749,0 2.115383,0.949279 2.115383,2.115385 0,1.16875 -0.946634,2.115384 -2.115383,2.115384 -1.166106,0 -2.115386,-0.946634 -2.115386,-2.115384 z"
       id="path2952" />
    <path
       style="fill:none;stroke:#385d8a;stroke-width:0.70601px;stroke-linecap:butt;stroke-linejoin:round;stroke-miterlimit:4;stroke-dasharray:none;stroke-opacity:1"
       d="m 42.742312,60.630621 c 0,-1.166106 0.94928,-2.115385 2.115386,-2.115385 1.168749,0 2.115383,0.949279 2.115383,2.115385 0,1.16875 -0.946634,2.115384 -2.115383,2.115384 -1.166106,0 -2.115386,-0.946634 -2.115386,-2.115384"
       id="path2954" />
    <path
       style="fill:#4f81bd;fill-opacity:1;fill-rule:evenodd;stroke:none;stroke-width:0.264583"
       d="m 46.973081,64.86139 c 0,-1.166106 0.94928,-2.115385 2.115386,-2.115385 1.168749,0 2.115384,0.949279 2.115384,2.115385 0,1.16875 -0.946635,2.115385 -2.115384,2.115385 -1.166106,0 -2.115386,-0.946635 -2.115386,-2.115385 z"
       id="path2956" />
    <path
       style="fill:none;stroke:#385d8a;stroke-width:0.70601px;stroke-linecap:butt;stroke-linejoin:round;stroke-miterlimit:4;stroke-dasharray:none;stroke-opacity:1"
       d="m 46.973081,64.86139 c 0,-1.166106 0.94928,-2.115385 2.115386,-2.115385 1.168749,0 2.115384,0.949279 2.115384,2.115385 0,1.16875 -0.946635,2.115385 -2.115384,2.115385 -1.166106,0 -2.115386,-0.946635 -2.115386,-2.115385"
       id="path2958" />
    <path
       style="fill:#4f81bd;fill-opacity:1;fill-rule:evenodd;stroke:none;stroke-width:0.264583"
       d="m 51.203851,69.09216 c 0,-1.166106 0.94928,-2.115385 2.115386,-2.115385 1.168749,0 2.115383,0.949279 2.115383,2.115385 0,1.168749 -0.946634,2.115383 -2.115383,2.115383 -1.166106,0 -2.115386,-0.946634 -2.115386,-2.115383 z"
       id="path2960" />
    <path
       style="fill:none;stroke:#385d8a;stroke-width:0.70601px;stroke-linecap:butt;stroke-linejoin:round;stroke-miterlimit:4;stroke-dasharray:none;stroke-opacity:1"
       d="m 51.203851,69.09216 c 0,-1.166106 0.94928,-2.115385 2.115386,-2.115385 1.168749,0 2.115383,0.949279 2.115383,2.115385 0,1.168749 -0.946634,2.115383 -2.115383,2.115383 -1.166106,0 -2.115386,-0.946634 -2.115386,-2.115383"
       id="path2962" />
    <path
       style="fill:#4f81bd;fill-opacity:1;fill-rule:evenodd;stroke:none;stroke-width:0.264583"
       d="m 55.43462,73.32293 c 0,-1.166106 0.94928,-2.115387 2.115382,-2.115387 1.16875,0 2.11539,0.949281 2.11539,2.115387 0,1.168749 -0.94664,2.115383 -2.11539,2.115383 -1.166102,0 -2.115382,-0.946634 -2.115382,-2.115383 z"
       id="path2964" />
    <path
       style="fill:none;stroke:#385d8a;stroke-width:0.70601px;stroke-linecap:butt;stroke-linejoin:round;stroke-miterlimit:4;stroke-dasharray:none;stroke-opacity:1"
       d="m 55.43462,73.32293 c 0,-1.166106 0.94928,-2.115387 2.115382,-2.115387 1.16875,0 2.11539,0.949281 2.11539,2.115387 0,1.168749 -0.94664,2.115383 -2.11539,2.115383 -1.166102,0 -2.115382,-0.946634 -2.115382,-2.115383"
       id="path2966" />
    <path
       style="fill:#4f81bd;fill-opacity:1;fill-rule:evenodd;stroke:none;stroke-width:0.264583"
       d="m 59.665392,77.553696 c 0,-1.16346 0.95192,-2.115383 2.11538,-2.115383 1.16875,0 2.11539,0.951923 2.11539,2.115383 0,1.168752 -0.94664,2.115387 -2.11539,2.115387 -1.16346,0 -2.11538,-0.946635 -2.11538,-2.115387 z"
       id="path2968" />
    <path
       style="fill:none;stroke:#385d8a;stroke-width:0.703365px;stroke-linecap:butt;stroke-linejoin:round;stroke-miterlimit:4;stroke-dasharray:none;stroke-opacity:1"
       d="m 59.665392,77.553696 c 0,-1.16346 0.95192,-2.115383 2.11538,-2.115383 1.16875,0 2.11539,0.951923 2.11539,2.115383 0,1.168752 -0.94664,2.115387 -2.11539,2.115387 -1.16346,0 -2.11538,-0.946635 -2.11538,-2.115387"
       id="path2970" />
    <path
       style="fill:#4f81bd;fill-opacity:1;fill-rule:evenodd;stroke:none;stroke-width:0.264583"
       d="m 63.896162,81.784466 c 0,-1.16346 0.95192,-2.115383 2.11538,-2.115383 1.16875,0 2.11539,0.951923 2.11539,2.115383 0,1.168752 -0.94664,2.115386 -2.11539,2.115386 -1.16346,0 -2.11538,-0.946634 -2.11538,-2.115386 z"
       id="path2972" />
    <path
       style="fill:none;stroke:#385d8a;stroke-width:0.703365px;stroke-linecap:butt;stroke-linejoin:round;stroke-miterlimit:4;stroke-dasharray:none;stroke-opacity:1"
       d="m 63.896162,81.784466 c 0,-1.16346 0.95192,-2.115383 2.11538,-2.115383 1.16875,0 2.11539,0.951923 2.11539,2.115383 0,1.168752 -0.94664,2.115386 -2.11539,2.115386 -1.16346,0 -2.11538,-0.946634 -2.11538,-2.115386"
       id="path2974" />
    <path
       style="fill:#4f81bd;fill-opacity:1;fill-rule:evenodd;stroke:none;stroke-width:0.264583"
       d="m 73.501614,43.027825 c 0,-1.166105 0.94928,-2.115384 2.115386,-2.115384 1.168749,0 2.115383,0.949279 2.115383,2.115384 0,1.16875 -0.946634,2.115385 -2.115383,2.115385 -1.166106,0 -2.115386,-0.946635 -2.115386,-2.115385 z"
       id="path2976" />
    <path
       transform="matrix(0.26458333,0,0,0.26458333,26.920845,40.108595)"
       style="fill:none;stroke:#385d8a;stroke-width:2.66838px;stroke-linecap:butt;stroke-linejoin:round;stroke-miterlimit:4;stroke-dasharray:none;stroke-opacity:1"
       clip-path="url(#clipEmfPath1)"
       d="m 176.0533,11.033313 c 0,-4.4073287 3.58783,-7.9951543 7.99516,-7.9951543 4.41732,0 7.99515,3.5878256 7.99515,7.9951543 0,4.417323 -3.57783,7.995155 -7.99515,7.995155 -4.40733,0 -7.99516,-3.577832 -7.99516,-7.995155"
       id="path2978" />
    <path
       style="fill:#4f81bd;fill-opacity:1;fill-rule:evenodd;stroke:none;stroke-width:0.264583"
       d="m 77.732383,47.258595 c 0,-1.166106 0.94928,-2.115385 2.115384,-2.115385 1.168752,0 2.115386,0.949279 2.115386,2.115385 0,1.16875 -0.946634,2.115384 -2.115386,2.115384 -1.166104,0 -2.115384,-0.946634 -2.115384,-2.115384 z"
       id="path2980" />
    <path
       style="fill:none;stroke:#385d8a;stroke-width:0.70601px;stroke-linecap:butt;stroke-linejoin:round;stroke-miterlimit:4;stroke-dasharray:none;stroke-opacity:1"
       d="m 77.732383,47.258595 c 0,-1.166106 0.94928,-2.115385 2.115384,-2.115385 1.168752,0 2.115386,0.949279 2.115386,2.115385 0,1.16875 -0.946634,2.115384 -2.115386,2.115384 -1.166104,0 -2.115384,-0.946634 -2.115384,-2.115384"
       id="path2982" />
    <path
       style="fill:#4f81bd;fill-opacity:1;fill-rule:evenodd;stroke:none;stroke-width:0.264583"
       d="m 38.850005,52.169082 c 0,-1.166106 0.949277,-2.115385 2.115383,-2.115385 1.168752,0 2.115387,0.949279 2.115387,2.115385 0,1.16875 -0.946635,2.115385 -2.115387,2.115385 -1.166106,0 -2.115383,-0.946635 -2.115383,-2.115385 z"
       id="path2984" />
    <path
       style="fill:none;stroke:#385d8a;stroke-width:0.70601px;stroke-linecap:butt;stroke-linejoin:round;stroke-miterlimit:4;stroke-dasharray:none;stroke-opacity:1"
       d="m 38.850005,52.169082 c 0,-1.166106 0.949277,-2.115385 2.115383,-2.115385 1.168752,0 2.115387,0.949279 2.115387,2.115385 0,1.16875 -0.946635,2.115385 -2.115387,2.115385 -1.166106,0 -2.115383,-0.946635 -2.115383,-2.115385"
       id="path2986" />
    <path
       style="fill:#4f81bd;fill-opacity:1;fill-rule:evenodd;stroke:none;stroke-width:0.264583"
       d="m 43.080775,56.399851 c 0,-1.166105 0.949277,-2.115384 2.115383,-2.115384 1.168752,0 2.115386,0.949279 2.115386,2.115384 0,1.168751 -0.946634,2.115385 -2.115386,2.115385 -1.166106,0 -2.115383,-0.946634 -2.115383,-2.115385 z"
       id="path2988" />
    <path
       style="fill:none;stroke:#385d8a;stroke-width:0.70601px;stroke-linecap:butt;stroke-linejoin:round;stroke-miterlimit:4;stroke-dasharray:none;stroke-opacity:1"
       d="m 43.080775,56.399851 c 0,-1.166105 0.949277,-2.115384 2.115383,-2.115384 1.168752,0 2.115386,0.949279 2.115386,2.115384 0,1.168751 -0.946634,2.115385 -2.115386,2.115385 -1.166106,0 -2.115383,-0.946634 -2.115383,-2.115385"
       id="path2990" />
    <path
       style="fill:#4f81bd;fill-opacity:1;fill-rule:evenodd;stroke:none;stroke-width:0.264583"
       d="m 47.311544,60.630621 c 0,-1.166106 0.949277,-2.115385 2.115383,-2.115385 1.16875,0 2.115387,0.949279 2.115387,2.115385 0,1.16875 -0.946637,2.115384 -2.115387,2.115384 -1.166106,0 -2.115383,-0.946634 -2.115383,-2.115384 z"
       id="path2992" />
    <path
       style="fill:none;stroke:#385d8a;stroke-width:0.70601px;stroke-linecap:butt;stroke-linejoin:round;stroke-miterlimit:4;stroke-dasharray:none;stroke-opacity:1"
       d="m 47.311544,60.630621 c 0,-1.166106 0.949277,-2.115385 2.115383,-2.115385 1.16875,0 2.115387,0.949279 2.115387,2.115385 0,1.16875 -0.946637,2.115384 -2.115387,2.115384 -1.166106,0 -2.115383,-0.946634 -2.115383,-2.115384"
       id="path2994" />
    <path
       style="fill:#4f81bd;fill-opacity:1;fill-rule:evenodd;stroke:none;stroke-width:0.264583"
       d="m 51.542314,64.86139 c 0,-1.166106 0.949277,-2.115385 2.115383,-2.115385 1.168749,0 2.115383,0.949279 2.115383,2.115385 0,1.16875 -0.946634,2.115385 -2.115383,2.115385 -1.166106,0 -2.115383,-0.946635 -2.115383,-2.115385 z"
       id="path2996" />
    <path
       style="fill:none;stroke:#385d8a;stroke-width:0.70601px;stroke-linecap:butt;stroke-linejoin:round;stroke-miterlimit:4;stroke-dasharray:none;stroke-opacity:1"
       d="m 51.542314,64.86139 c 0,-1.166106 0.949277,-2.115385 2.115383,-2.115385 1.168749,0 2.115383,0.949279 2.115383,2.115385 0,1.16875 -0.946634,2.115385 -2.115383,2.115385 -1.166106,0 -2.115383,-0.946635 -2.115383,-2.115385"
       id="path2998" />
    <path
       style="fill:#4f81bd;fill-opacity:1;fill-rule:evenodd;stroke:none;stroke-width:0.264583"
       d="m 55.77308,69.09216 c 0,-1.166106 0.94928,-2.115385 2.115392,-2.115385 1.16874,0 2.11538,0.949279 2.11538,2.115385 0,1.168749 -0.94664,2.115383 -2.11538,2.115383 -1.166112,0 -2.115392,-0.946634 -2.115392,-2.115383 z"
       id="path3000" />
    <path
       style="fill:none;stroke:#385d8a;stroke-width:0.70601px;stroke-linecap:butt;stroke-linejoin:round;stroke-miterlimit:4;stroke-dasharray:none;stroke-opacity:1"
       d="m 55.77308,69.09216 c 0,-1.166106 0.94928,-2.115385 2.115392,-2.115385 1.16874,0 2.11538,0.949279 2.11538,2.115385 0,1.168749 -0.94664,2.115383 -2.11538,2.115383 -1.166112,0 -2.115392,-0.946634 -2.115392,-2.115383"
       id="path3002" />
    <path
       style="fill:#4f81bd;fill-opacity:1;fill-rule:evenodd;stroke:none;stroke-width:0.264583"
       d="m 60.003852,73.32293 c 0,-1.163463 0.95192,-2.115387 2.11538,-2.115387 1.16875,0 2.11539,0.951924 2.11539,2.115387 0,1.168749 -0.94664,2.115383 -2.11539,2.115383 -1.16346,0 -2.11538,-0.946634 -2.11538,-2.115383 z"
       id="path3004" />
    <path
       style="fill:#ff0000;stroke:#385d8a;stroke-width:0.703365px;stroke-linecap:butt;stroke-linejoin:round;stroke-miterlimit:4;stroke-dasharray:none;stroke-opacity:1;fill-opacity:1"
       d="m 60.003852,73.32293 c 0,-1.163463 0.95192,-2.115387 2.11538,-2.115387 1.16875,0 2.11539,0.951924 2.11539,2.115387 0,1.168749 -0.94664,2.115383 -2.11539,2.115383 -1.16346,0 -2.11538,-0.946634 -2.11538,-2.115383"
       id="path3006" />
    <path
       style="fill:#4f81bd;fill-opacity:1;fill-rule:evenodd;stroke:none;stroke-width:0.264583"
       d="m 64.234622,77.553696 c 0,-1.16346 0.95192,-2.115383 2.11538,-2.115383 1.16875,0 2.11539,0.951923 2.11539,2.115383 0,1.168752 -0.94664,2.115387 -2.11539,2.115387 -1.16346,0 -2.11538,-0.946635 -2.11538,-2.115387 z"
       id="path3008" />
    <path
       style="fill:none;stroke:#385d8a;stroke-width:0.703365px;stroke-linecap:butt;stroke-linejoin:round;stroke-miterlimit:4;stroke-dasharray:none;stroke-opacity:1"
       d="m 64.234622,77.553696 c 0,-1.16346 0.95192,-2.115383 2.11538,-2.115383 1.16875,0 2.11539,0.951923 2.11539,2.115383 0,1.168752 -0.94664,2.115387 -2.11539,2.115387 -1.16346,0 -2.11538,-0.946635 -2.11538,-2.115387"
       id="path3010" />
    <path
       style="fill:#4f81bd;fill-opacity:1;fill-rule:evenodd;stroke:none;stroke-width:0.264583"
       d="m 68.465392,81.784466 c 0,-1.16346 0.95192,-2.115383 2.11538,-2.115383 1.16875,0 2.11539,0.951923 2.11539,2.115383 0,1.168752 -0.94664,2.115386 -2.11539,2.115386 -1.16346,0 -2.11538,-0.946634 -2.11538,-2.115386 z"
       id="path3012" />
    <path
       style="fill:none;stroke:#385d8a;stroke-width:0.703365px;stroke-linecap:butt;stroke-linejoin:round;stroke-miterlimit:4;stroke-dasharray:none;stroke-opacity:1"
       d="m 68.465392,81.784466 c 0,-1.16346 0.95192,-2.115383 2.11538,-2.115383 1.16875,0 2.11539,0.951923 2.11539,2.115383 0,1.168752 -0.94664,2.115386 -2.11539,2.115386 -1.16346,0 -2.11538,-0.946634 -2.11538,-2.115386"
       id="path3014" />
    <path
       style="fill:#4f81bd;fill-opacity:1;fill-rule:evenodd;stroke:none;stroke-width:0.264583"
       d="m 77.60546,42.900902 c 0,-1.166106 0.94928,-2.115384 2.115386,-2.115384 1.16875,0 2.115384,0.949278 2.115384,2.115384 0,1.16875 -0.946634,2.115385 -2.115384,2.115385 -1.166106,0 -2.115386,-0.946635 -2.115386,-2.115385 z"
       id="path3016" />
    <path
       transform="matrix(0.26458333,0,0,0.26458333,26.920845,40.108595)"
       style="fill:none;stroke:#385d8a;stroke-width:2.66838px;stroke-linecap:butt;stroke-linejoin:round;stroke-miterlimit:4;stroke-dasharray:none;stroke-opacity:1"
       clip-path="url(#clipEmfPath1)"
       d="m 191.5639,10.553604 c 0,-4.407329 3.58783,-7.9951546 7.99516,-7.9951546 4.41732,0 7.99515,3.5878256 7.99515,7.9951546 0,4.417323 -3.57783,7.995154 -7.99515,7.995154 -4.40733,0 -7.99516,-3.577831 -7.99516,-7.995154"
       id="path3018" />
    <path
       style="fill:#4f81bd;fill-opacity:1;fill-rule:evenodd;stroke:none;stroke-width:0.264583"
       d="m 38.723082,47.81139 c 0,-1.166106 0.94928,-2.115385 2.115383,-2.115385 1.168752,0 2.115386,0.949279 2.115386,2.115385 0,1.16875 -0.946634,2.115384 -2.115386,2.115384 -1.166103,0 -2.115383,-0.946634 -2.115383,-2.115384 z"
       id="path3020" />
    <path
       style="fill:none;stroke:#385d8a;stroke-width:0.70601px;stroke-linecap:butt;stroke-linejoin:round;stroke-miterlimit:4;stroke-dasharray:none;stroke-opacity:1"
       d="m 38.723082,47.81139 c 0,-1.166106 0.94928,-2.115385 2.115383,-2.115385 1.168752,0 2.115386,0.949279 2.115386,2.115385 0,1.16875 -0.946634,2.115384 -2.115386,2.115384 -1.166103,0 -2.115383,-0.946634 -2.115383,-2.115384"
       id="path3022" />
    <path
       style="fill:#4f81bd;fill-opacity:1;fill-rule:evenodd;stroke:none;stroke-width:0.264583"
       d="m 42.953851,52.042159 c 0,-1.166106 0.949278,-2.115385 2.115384,-2.115385 1.168752,0 2.115386,0.949279 2.115386,2.115385 0,1.16875 -0.946634,2.115385 -2.115386,2.115385 -1.166106,0 -2.115384,-0.946635 -2.115384,-2.115385 z"
       id="path3024" />
    <path
       style="fill:none;stroke:#385d8a;stroke-width:0.70601px;stroke-linecap:butt;stroke-linejoin:round;stroke-miterlimit:4;stroke-dasharray:none;stroke-opacity:1"
       d="m 42.953851,52.042159 c 0,-1.166106 0.949278,-2.115385 2.115384,-2.115385 1.168752,0 2.115386,0.949279 2.115386,2.115385 0,1.16875 -0.946634,2.115385 -2.115386,2.115385 -1.166106,0 -2.115384,-0.946635 -2.115384,-2.115385"
       id="path3026" />
    <path
       style="fill:#4f81bd;fill-opacity:1;fill-rule:evenodd;stroke:none;stroke-width:0.264583"
       d="m 47.184621,56.272928 c 0,-1.166105 0.949277,-2.115384 2.115383,-2.115384 1.168749,0 2.115386,0.949279 2.115386,2.115384 0,1.16875 -0.946637,2.115385 -2.115386,2.115385 -1.166106,0 -2.115383,-0.946635 -2.115383,-2.115385 z"
       id="path3028" />
    <path
       style="fill:none;stroke:#385d8a;stroke-width:0.70601px;stroke-linecap:butt;stroke-linejoin:round;stroke-miterlimit:4;stroke-dasharray:none;stroke-opacity:1"
       d="m 47.184621,56.272928 c 0,-1.166105 0.949277,-2.115384 2.115383,-2.115384 1.168749,0 2.115386,0.949279 2.115386,2.115384 0,1.16875 -0.946637,2.115385 -2.115386,2.115385 -1.166106,0 -2.115383,-0.946635 -2.115383,-2.115385"
       id="path3030" />
    <path
       style="fill:#4f81bd;fill-opacity:1;fill-rule:evenodd;stroke:none;stroke-width:0.264583"
       d="m 51.41539,60.503697 c 0,-1.166105 0.949278,-2.115384 2.115384,-2.115384 1.168749,0 2.115386,0.949279 2.115386,2.115384 0,1.168751 -0.946637,2.115385 -2.115386,2.115385 -1.166106,0 -2.115384,-0.946634 -2.115384,-2.115385 z"
       id="path3032" />
    <path
       style="fill:none;stroke:#385d8a;stroke-width:0.70601px;stroke-linecap:butt;stroke-linejoin:round;stroke-miterlimit:4;stroke-dasharray:none;stroke-opacity:1"
       d="m 51.41539,60.503697 c 0,-1.166105 0.949278,-2.115384 2.115384,-2.115384 1.168749,0 2.115386,0.949279 2.115386,2.115384 0,1.168751 -0.946637,2.115385 -2.115386,2.115385 -1.166106,0 -2.115384,-0.946634 -2.115384,-2.115385"
       id="path3034" />
    <path
       style="fill:#4f81bd;fill-opacity:1;fill-rule:evenodd;stroke:none;stroke-width:0.264583"
       d="m 55.64616,64.734467 c 0,-1.166106 0.949277,-2.115385 2.115382,-2.115385 1.16875,0 2.11539,0.949279 2.11539,2.115385 0,1.16875 -0.94664,2.115385 -2.11539,2.115385 -1.166105,0 -2.115382,-0.946635 -2.115382,-2.115385 z"
       id="path3036" />
    <path
       style="fill:none;stroke:#385d8a;stroke-width:0.70601px;stroke-linecap:butt;stroke-linejoin:round;stroke-miterlimit:4;stroke-dasharray:none;stroke-opacity:1"
       d="m 55.64616,64.734467 c 0,-1.166106 0.949277,-2.115385 2.115382,-2.115385 1.16875,0 2.11539,0.949279 2.11539,2.115385 0,1.16875 -0.94664,2.115385 -2.11539,2.115385 -1.166105,0 -2.115382,-0.946635 -2.115382,-2.115385"
       id="path3038" />
    <path
       style="fill:#4f81bd;fill-opacity:1;fill-rule:evenodd;stroke:none;stroke-width:0.264583"
       d="m 59.876932,68.965237 c 0,-1.163463 0.95192,-2.115385 2.11538,-2.115385 1.16875,0 2.11538,0.951922 2.11538,2.115385 0,1.168749 -0.94663,2.115383 -2.11538,2.115383 -1.16346,0 -2.11538,-0.946634 -2.11538,-2.115383 z"
       id="path3040" />
    <path
       style="fill:none;stroke:#385d8a;stroke-width:0.703365px;stroke-linecap:butt;stroke-linejoin:round;stroke-miterlimit:4;stroke-dasharray:none;stroke-opacity:1"
       d="m 59.876932,68.965237 c 0,-1.163463 0.95192,-2.115385 2.11538,-2.115385 1.16875,0 2.11538,0.951922 2.11538,2.115385 0,1.168749 -0.94663,2.115383 -2.11538,2.115383 -1.16346,0 -2.11538,-0.946634 -2.11538,-2.115383"
       id="path3042" />
    <path
       style="fill:#4f81bd;fill-opacity:1;fill-rule:evenodd;stroke:none;stroke-width:0.264583"
       d="m 64.107692,73.196006 c 0,-1.163463 0.95193,-2.115386 2.11539,-2.115386 1.16875,0 2.11538,0.951923 2.11538,2.115386 0,1.16875 -0.94663,2.115384 -2.11538,2.115384 -1.16346,0 -2.11539,-0.946634 -2.11539,-2.115384 z"
       id="path3044" />
    <path
       style="fill:none;stroke:#385d8a;stroke-width:0.703365px;stroke-linecap:butt;stroke-linejoin:round;stroke-miterlimit:4;stroke-dasharray:none;stroke-opacity:1"
       d="m 64.107692,73.196006 c 0,-1.163463 0.95193,-2.115386 2.11539,-2.115386 1.16875,0 2.11538,0.951923 2.11538,2.115386 0,1.16875 -0.94663,2.115384 -2.11538,2.115384 -1.16346,0 -2.11539,-0.946634 -2.11539,-2.115384"
       id="path3046" />
    <path
       style="fill:#4f81bd;fill-opacity:1;fill-rule:evenodd;stroke:none;stroke-width:0.264583"
       d="m 68.338462,77.426776 c 0,-1.163463 0.95193,-2.115386 2.11539,-2.115386 1.16875,0 2.11538,0.951923 2.11538,2.115386 0,1.168749 -0.94663,2.115383 -2.11538,2.115383 -1.16346,0 -2.11539,-0.946634 -2.11539,-2.115383 z"
       id="path3048" />
    <path
       style="fill:none;stroke:#385d8a;stroke-width:0.703365px;stroke-linecap:butt;stroke-linejoin:round;stroke-miterlimit:4;stroke-dasharray:none;stroke-opacity:1"
       d="m 68.338462,77.426776 c 0,-1.163463 0.95193,-2.115386 2.11539,-2.115386 1.16875,0 2.11538,0.951923 2.11538,2.115386 0,1.168749 -0.94663,2.115383 -2.11538,2.115383 -1.16346,0 -2.11539,-0.946634 -2.11539,-2.115383"
       id="path3050" />
    <path
       style="fill:#4f81bd;fill-opacity:1;fill-rule:evenodd;stroke:none;stroke-width:0.264583"
       d="m 72.569232,81.657543 c 0,-1.163461 0.95193,-2.115384 2.11539,-2.115384 1.16875,0 2.11538,0.951923 2.11538,2.115384 0,1.168752 -0.94663,2.115386 -2.11538,2.115386 -1.16346,0 -2.11539,-0.946634 -2.11539,-2.115386 z"
       id="path3052" />
    <path
       style="fill:none;stroke:#385d8a;stroke-width:0.703365px;stroke-linecap:butt;stroke-linejoin:round;stroke-miterlimit:4;stroke-dasharray:none;stroke-opacity:1"
       d="m 72.569232,81.657543 c 0,-1.163461 0.95193,-2.115384 2.11539,-2.115384 1.16875,0 2.11538,0.951923 2.11538,2.115384 0,1.168752 -0.94663,2.115386 -2.11538,2.115386 -1.16346,0 -2.11539,-0.946634 -2.11539,-2.115386"
       id="path3054" />
  </g>
</svg>
