<?xml version="1.0" encoding="UTF-8" standalone="no"?>
<svg
   xmlns:dc="http://purl.org/dc/elements/1.1/"
   xmlns:cc="http://creativecommons.org/ns#"
   xmlns:rdf="http://www.w3.org/1999/02/22-rdf-syntax-ns#"
   xmlns:svg="http://www.w3.org/2000/svg"
   xmlns="http://www.w3.org/2000/svg"
   xmlns:sodipodi="http://sodipodi.sourceforge.net/DTD/sodipodi-0.dtd"
   xmlns:inkscape="http://www.inkscape.org/namespaces/inkscape"
   inkscape:export-ydpi="96"
   inkscape:export-xdpi="96"
   inkscape:export-filename="C:\DSC640\Project\Task3\TreeMap.png"
   inkscape:version="1.0 (4035a4fb49, 2020-05-01)"
   sodipodi:docname="TreeMap.svg"
   viewBox="0 0 816 1056"
   height="1056"
   width="816"
   xml:space="preserve"
   id="svg833"
   version="1.1"><metadata
     id="metadata839"><rdf:RDF><cc:Work
         rdf:about=""><dc:format>image/svg+xml</dc:format><dc:type
           rdf:resource="http://purl.org/dc/dcmitype/StillImage" /><dc:title></dc:title></cc:Work></rdf:RDF></metadata><defs
     id="defs837"><clipPath
       id="clipPath859"
       clipPathUnits="userSpaceOnUse"><path
         id="path857"
         clip-rule="evenodd"
         d="M 0,0 H 899.99252 V 719.99402 H 0 Z" /></clipPath><clipPath
       id="clipPath879"
       clipPathUnits="userSpaceOnUse"><path
         id="path877"
         clip-rule="evenodd"
         d="m 10.79991,55.799537 h 878.3927 V 598.49503 H 10.79991 Z" /></clipPath><clipPath
       id="clipPath889"
       clipPathUnits="userSpaceOnUse"><path
         id="path887"
         clip-rule="evenodd"
         d="m 10.79991,55.799537 h 878.3927 V 598.49503 H 10.79991 Z" /></clipPath><clipPath
       id="clipPath909"
       clipPathUnits="userSpaceOnUse"><path
         id="path907"
         clip-rule="evenodd"
         d="m 10.79991,55.799537 h 878.3927 V 598.49503 H 10.79991 Z" /></clipPath><clipPath
       id="clipPath925"
       clipPathUnits="userSpaceOnUse"><path
         id="path923"
         clip-rule="evenodd"
         d="m 10.79991,55.799537 h 878.3927 V 598.49503 H 10.79991 Z" /></clipPath><clipPath
       id="clipPath935"
       clipPathUnits="userSpaceOnUse"><path
         id="path933"
         clip-rule="evenodd"
         d="m 10.79991,55.799537 h 878.3927 V 598.49503 H 10.79991 Z" /></clipPath><clipPath
       id="clipPath945"
       clipPathUnits="userSpaceOnUse"><path
         id="path943"
         clip-rule="evenodd"
         d="m 10.79991,55.799537 h 878.3927 V 598.49503 H 10.79991 Z" /></clipPath><clipPath
       id="clipPath955"
       clipPathUnits="userSpaceOnUse"><path
         id="path953"
         clip-rule="evenodd"
         d="m 10.79991,55.799537 h 878.3927 V 598.49503 H 10.79991 Z" /></clipPath><clipPath
       id="clipPath971"
       clipPathUnits="userSpaceOnUse"><path
         id="path969"
         clip-rule="evenodd"
         d="m 10.79991,55.799537 h 878.3927 V 598.49503 H 10.79991 Z" /></clipPath><clipPath
       id="clipPath981"
       clipPathUnits="userSpaceOnUse"><path
         id="path979"
         clip-rule="evenodd"
         d="m 10.79991,55.799537 h 878.3927 V 598.49503 H 10.79991 Z" /></clipPath><clipPath
       id="clipPath991"
       clipPathUnits="userSpaceOnUse"><path
         id="path989"
         clip-rule="evenodd"
         d="m 10.79991,55.799537 h 878.3927 V 598.49503 H 10.79991 Z" /></clipPath><clipPath
       id="clipPath1001"
       clipPathUnits="userSpaceOnUse"><path
         id="path999"
         clip-rule="evenodd"
         d="m 10.79991,55.799537 h 878.3927 V 598.49503 H 10.79991 Z" /></clipPath><clipPath
       id="clipPath1011"
       clipPathUnits="userSpaceOnUse"><path
         id="path1009"
         clip-rule="evenodd"
         d="m 10.79991,55.799537 h 878.3927 V 598.49503 H 10.79991 Z" /></clipPath><clipPath
       id="clipPath1191"
       clipPathUnits="userSpaceOnUse"><path
         id="path1189"
         clip-rule="evenodd"
         d="m 10.79991,55.799537 h 878.3927 V 598.49503 H 10.79991 Z" /></clipPath><clipPath
       id="clipPath1267"
       clipPathUnits="userSpaceOnUse"><path
         id="path1265"
         clip-rule="evenodd"
         d="m 10.79991,55.799537 h 878.3927 V 598.49503 H 10.79991 Z" /></clipPath><clipPath
       id="clipPath1277"
       clipPathUnits="userSpaceOnUse"><path
         id="path1275"
         clip-rule="evenodd"
         d="m 10.79991,55.799537 h 878.3927 V 598.49503 H 10.79991 Z" /></clipPath><clipPath
       id="clipPath1287"
       clipPathUnits="userSpaceOnUse"><path
         id="path1285"
         clip-rule="evenodd"
         d="m 10.79991,55.799537 h 878.3927 V 598.49503 H 10.79991 Z" /></clipPath><clipPath
       id="clipPath1297"
       clipPathUnits="userSpaceOnUse"><path
         id="path1295"
         clip-rule="evenodd"
         d="m 10.79991,55.799537 h 878.3927 V 598.49503 H 10.79991 Z" /></clipPath><clipPath
       id="clipPath1307"
       clipPathUnits="userSpaceOnUse"><path
         id="path1305"
         clip-rule="evenodd"
         d="m 10.79991,55.799537 h 878.3927 V 598.49503 H 10.79991 Z" /></clipPath><clipPath
       id="clipPath1317"
       clipPathUnits="userSpaceOnUse"><path
         id="path1315"
         clip-rule="evenodd"
         d="m 10.79991,55.799537 h 878.3927 V 598.49503 H 10.79991 Z" /></clipPath><clipPath
       id="clipPath1327"
       clipPathUnits="userSpaceOnUse"><path
         id="path1325"
         clip-rule="evenodd"
         d="m 10.79991,55.799537 h 878.3927 V 598.49503 H 10.79991 Z" /></clipPath><clipPath
       id="clipPath1337"
       clipPathUnits="userSpaceOnUse"><path
         id="path1335"
         clip-rule="evenodd"
         d="m 10.79991,55.799537 h 878.3927 V 598.49503 H 10.79991 Z" /></clipPath><clipPath
       id="clipPath1347"
       clipPathUnits="userSpaceOnUse"><path
         id="path1345"
         clip-rule="evenodd"
         d="m 10.79991,55.799537 h 878.3927 V 598.49503 H 10.79991 Z" /></clipPath><clipPath
       id="clipPath1357"
       clipPathUnits="userSpaceOnUse"><path
         id="path1355"
         clip-rule="evenodd"
         d="m 10.79991,55.799537 h 878.3927 V 598.49503 H 10.79991 Z" /></clipPath><clipPath
       id="clipPath1367"
       clipPathUnits="userSpaceOnUse"><path
         id="path1365"
         clip-rule="evenodd"
         d="m 10.79991,55.799537 h 878.3927 V 598.49503 H 10.79991 Z" /></clipPath><clipPath
       id="clipPath1377"
       clipPathUnits="userSpaceOnUse"><path
         id="path1375"
         clip-rule="evenodd"
         d="m 10.79991,55.799537 h 878.3927 V 598.49503 H 10.79991 Z" /></clipPath><clipPath
       id="clipPath1387"
       clipPathUnits="userSpaceOnUse"><path
         id="path1385"
         clip-rule="evenodd"
         d="M 0,0 H 899.99252 V 719.99402 H 0 Z" /></clipPath><clipPath
       id="clipPath1397"
       clipPathUnits="userSpaceOnUse"><path
         id="path1395"
         clip-rule="evenodd"
         d="M 0,0 H 899.99252 V 719.99402 H 0 Z" /></clipPath></defs><sodipodi:namedview
     inkscape:current-layer="g841"
     inkscape:window-maximized="1"
     inkscape:window-y="-9"
     inkscape:window-x="-9"
     inkscape:cy="304.6094"
     inkscape:cx="408"
     inkscape:zoom="1.5719697"
     showgrid="false"
     id="namedview835"
     inkscape:window-height="1001"
     inkscape:window-width="1920"
     inkscape:pageshadow="2"
     inkscape:pageopacity="0"
     guidetolerance="10"
     gridtolerance="10"
     objecttolerance="10"
     borderopacity="1"
     bordercolor="#666666"
     pagecolor="#ffffff" /><g
     transform="matrix(1.3333333,0,0,-1.3333333,0,1056)"
     inkscape:label="Tableau_Project_Task3_Charts"
     inkscape:groupmode="layer"
     id="g841"><g
       transform="matrix(0.6,0,0,-0.6,36,756)"
       id="g843"><g
         id="g845"><g
           id="g847" /></g><g
         id="g849"><g
           id="g851" /></g><g
         id="g853"><g
           clip-path="url(#clipPath859)"
           id="g855"><g
             id="g861"><g
               transform="scale(0.89999253)"
               id="g863"><path
                 id="path865"
                 style="fill:#ffffff;fill-opacity:1;fill-rule:nonzero;stroke:none"
                 d="M 0,0 H 1000 V 800 H 0 Z" /></g></g><g
             id="g867"><g
               transform="matrix(0.89999253,0,0,0.89999253,10.79991,10.79991)"
               id="g869"><path
                 id="path871"
                 style="fill:#ffffff;fill-opacity:1;fill-rule:nonzero;stroke:none"
                 d="M 0,50 H 976 V 653 H 0 Z" /></g></g></g></g><g
         id="g873"><g
           clip-path="url(#clipPath879)"
           id="g875"><g
             transform="matrix(0.89999253,0,0,0.89999253,10.79991,55.799537)"
             id="g881" /></g></g><g
         id="g883"><g
           clip-path="url(#clipPath889)"
           id="g885"><g
             transform="matrix(0.89999253,0,0,0.89999253,10.79991,55.799537)"
             id="g891" /><g
             id="g893"><g
               transform="matrix(0.89999253,0,0,0.89999253,10.79991,55.799537)"
               id="g895"><path
                 id="path897"
                 style="fill:#ffffff;fill-opacity:1;fill-rule:nonzero;stroke:none"
                 d="M 0,0 H 976 V 603 H 0 Z" /></g><g
               transform="matrix(0.89999253,0,0,0.89999253,10.79991,55.799537)"
               id="g899"><path
                 id="path901"
                 style="fill:#ffffff;fill-opacity:1;fill-rule:nonzero;stroke:none"
                 d="M 0,50 H 976 V 603 H 0 Z" /></g></g></g></g><g
         id="g903"><g
           clip-path="url(#clipPath909)"
           id="g905"><g
             transform="matrix(0.89999253,0,0,0.89999253,10.79991,55.799537)"
             id="g911" /><g
             id="g913"><g
               transform="matrix(0.89999253,0,0,0.89999253,10.79991,55.799537)"
               id="g915"><path
                 id="path917"
                 style="fill:#ffffff;fill-opacity:1;fill-rule:nonzero;stroke:none"
                 d="M 0,0 H 976 V 603 H 0 Z" /></g></g></g></g><g
         id="g919"><g
           clip-path="url(#clipPath925)"
           id="g921"><g
             transform="matrix(0.89999253,0,0,0.89999253,10.79991,55.799537)"
             id="g927" /></g></g><g
         id="g929"><g
           clip-path="url(#clipPath935)"
           id="g931"><g
             transform="matrix(0.89999253,0,0,0.89999253,10.79991,55.799537)"
             id="g937" /></g></g><g
         id="g939"><g
           clip-path="url(#clipPath945)"
           id="g941"><g
             transform="matrix(0.89999253,0,0,0.89999253,10.79991,55.799537)"
             id="g947" /></g></g><g
         id="g949"><g
           clip-path="url(#clipPath955)"
           id="g951"><g
             transform="matrix(0.89999253,0,0,0.89999253,10.79991,55.799537)"
             id="g957" /><g
             id="g959"><g
               transform="matrix(0.89999253,0,0,0.89999253,10.79991,55.799537)"
               id="g961"><path
                 id="path963"
                 style="fill:#ffffff;fill-opacity:1;fill-rule:nonzero;stroke:none"
                 d="M 0,0 H 976 V 603 H 0 Z" /></g></g></g></g><g
         id="g965"><g
           clip-path="url(#clipPath971)"
           id="g967"><g
             transform="matrix(0.89999253,0,0,0.89999253,10.79991,55.799537)"
             id="g973" /></g></g><g
         id="g975"><g
           clip-path="url(#clipPath981)"
           id="g977"><g
             transform="matrix(0.89999253,0,0,0.89999253,10.79991,55.799537)"
             id="g983" /></g></g><g
         id="g985"><g
           clip-path="url(#clipPath991)"
           id="g987"><g
             transform="matrix(0.89999253,0,0,0.89999253,10.79991,55.799537)"
             id="g993" /></g></g><g
         id="g995"><g
           clip-path="url(#clipPath1001)"
           id="g997"><g
             transform="matrix(0.89999253,0,0,0.89999253,10.79991,55.799537)"
             id="g1003" /></g></g><g
         id="g1005"><g
           clip-path="url(#clipPath1011)"
           id="g1007"><g
             transform="matrix(0.89999253,0,0,0.89999253,10.79991,55.799537)"
             id="g1013" /><g
             id="g1015"><g
               transform="matrix(0.89999253,0,0,0.89999253,10.79991,55.799537)"
               id="g1017"><path
                 id="path1019"
                 style="fill:#2a5783;fill-opacity:1;fill-rule:nonzero;stroke:none"
                 d="m 940,511 h 32 v 88 h -32 z" /></g></g><g
             transform="matrix(0.89999253,0,0,0.89999253,10.79991,55.799537)"
             id="g1021"><path
               id="path1023"
               style="fill:none;stroke:#ffffff;stroke-width:1;stroke-linecap:butt;stroke-linejoin:miter;stroke-miterlimit:10;stroke-dasharray:none;stroke-opacity:1"
               d="m 940,511 h 32 v 88 h -32 z" /></g><g
             id="g1025"><g
               transform="matrix(0.89999253,0,0,0.89999253,10.79991,55.799537)"
               id="g1027"><path
                 id="path1029"
                 style="fill:#325f8b;fill-opacity:1;fill-rule:nonzero;stroke:none"
                 d="M 4,304 H 385 V 599 H 4 Z" /></g></g><g
             transform="matrix(0.89999253,0,0,0.89999253,10.79991,55.799537)"
             id="g1031"><path
               id="path1033"
               style="fill:none;stroke:#ffffff;stroke-width:1;stroke-linecap:butt;stroke-linejoin:miter;stroke-miterlimit:10;stroke-dasharray:none;stroke-opacity:1"
               d="M 4,304 H 385 V 599 H 4 Z" /></g><g
             id="g1035"><g
               transform="matrix(0.89999253,0,0,0.89999253,10.79991,55.799537)"
               id="g1037"><path
                 id="path1039"
                 style="fill:#396794;fill-opacity:1;fill-rule:nonzero;stroke:none"
                 d="M 618,293 H 842 V 444 H 618 Z" /></g></g><g
             transform="matrix(0.89999253,0,0,0.89999253,10.79991,55.799537)"
             id="g1041"><path
               id="path1043"
               style="fill:none;stroke:#ffffff;stroke-width:1;stroke-linecap:butt;stroke-linejoin:miter;stroke-miterlimit:10;stroke-dasharray:none;stroke-opacity:1"
               d="M 618,293 H 842 V 444 H 618 Z" /></g><g
             id="g1045"><g
               transform="matrix(0.89999253,0,0,0.89999253,10.79991,55.799537)"
               id="g1047"><path
                 id="path1049"
                 style="fill:#406e9c;fill-opacity:1;fill-rule:nonzero;stroke:none"
                 d="m 907,293 h 65 v 113 h -65 z" /></g></g><g
             transform="matrix(0.89999253,0,0,0.89999253,10.79991,55.799537)"
             id="g1051"><path
               id="path1053"
               style="fill:none;stroke:#ffffff;stroke-width:1;stroke-linecap:butt;stroke-linejoin:miter;stroke-miterlimit:10;stroke-dasharray:none;stroke-opacity:1"
               d="m 907,293 h 65 v 113 h -65 z" /></g><g
             id="g1055"><g
               transform="matrix(0.89999253,0,0,0.89999253,10.79991,55.799537)"
               id="g1057"><path
                 id="path1059"
                 style="fill:#4776a4;fill-opacity:1;fill-rule:nonzero;stroke:none"
                 d="M 758,4 H 972 V 293 H 758 Z" /></g></g><g
             transform="matrix(0.89999253,0,0,0.89999253,10.79991,55.799537)"
             id="g1061"><path
               id="path1063"
               style="fill:none;stroke:#ffffff;stroke-width:1;stroke-linecap:butt;stroke-linejoin:miter;stroke-miterlimit:10;stroke-dasharray:none;stroke-opacity:1"
               d="M 758,4 H 972 V 293 H 758 Z" /></g><g
             id="g1065"><g
               transform="matrix(0.89999253,0,0,0.89999253,10.79991,55.799537)"
               id="g1067"><path
                 id="path1069"
                 style="fill:#4d7eac;fill-opacity:1;fill-rule:nonzero;stroke:none"
                 d="M 385,447 H 618 V 599 H 385 Z" /></g></g><g
             transform="matrix(0.89999253,0,0,0.89999253,10.79991,55.799537)"
             id="g1071"><path
               id="path1073"
               style="fill:none;stroke:#ffffff;stroke-width:1;stroke-linecap:butt;stroke-linejoin:miter;stroke-miterlimit:10;stroke-dasharray:none;stroke-opacity:1"
               d="M 385,447 H 618 V 599 H 385 Z" /></g><g
             id="g1075"><g
               transform="matrix(0.89999253,0,0,0.89999253,10.79991,55.799537)"
               id="g1077"><path
                 id="path1079"
                 style="fill:#5586b3;fill-opacity:1;fill-rule:nonzero;stroke:none"
                 d="m 618,444 h 224 v 78 H 618 Z" /></g></g><g
             transform="matrix(0.89999253,0,0,0.89999253,10.79991,55.799537)"
             id="g1081"><path
               id="path1083"
               style="fill:none;stroke:#ffffff;stroke-width:1;stroke-linecap:butt;stroke-linejoin:miter;stroke-miterlimit:10;stroke-dasharray:none;stroke-opacity:1"
               d="m 618,444 h 224 v 78 H 618 Z" /></g><g
             id="g1085"><g
               transform="matrix(0.89999253,0,0,0.89999253,10.79991,55.799537)"
               id="g1087"><path
                 id="path1089"
                 style="fill:#5e8fba;fill-opacity:1;fill-rule:nonzero;stroke:none"
                 d="m 842,406 h 67 v 105 h -67 z" /></g></g><g
             transform="matrix(0.89999253,0,0,0.89999253,10.79991,55.799537)"
             id="g1091"><path
               id="path1093"
               style="fill:none;stroke:#ffffff;stroke-width:1;stroke-linecap:butt;stroke-linejoin:miter;stroke-miterlimit:10;stroke-dasharray:none;stroke-opacity:1"
               d="m 842,406 h 67 v 105 h -67 z" /></g><g
             id="g1095"><g
               transform="matrix(0.89999253,0,0,0.89999253,10.79991,55.799537)"
               id="g1097"><path
                 id="path1099"
                 style="fill:#6798c1;fill-opacity:1;fill-rule:nonzero;stroke:none"
                 d="m 909,406 h 63 v 105 h -63 z" /></g></g><g
             transform="matrix(0.89999253,0,0,0.89999253,10.79991,55.799537)"
             id="g1101"><path
               id="path1103"
               style="fill:none;stroke:#ffffff;stroke-width:1;stroke-linecap:butt;stroke-linejoin:miter;stroke-miterlimit:10;stroke-dasharray:none;stroke-opacity:1"
               d="m 909,406 h 63 v 105 h -63 z" /></g><g
             id="g1105"><g
               transform="matrix(0.89999253,0,0,0.89999253,10.79991,55.799537)"
               id="g1107"><path
                 id="path1109"
                 style="fill:#6fa0c7;fill-opacity:1;fill-rule:nonzero;stroke:none"
                 d="M 385,4 H 758 V 293 H 385 Z" /></g></g><g
             transform="matrix(0.89999253,0,0,0.89999253,10.79991,55.799537)"
             id="g1111"><path
               id="path1113"
               style="fill:none;stroke:#ffffff;stroke-width:1;stroke-linecap:butt;stroke-linejoin:miter;stroke-miterlimit:10;stroke-dasharray:none;stroke-opacity:1"
               d="M 385,4 H 758 V 293 H 385 Z" /></g><g
             id="g1115"><g
               transform="matrix(0.89999253,0,0,0.89999253,10.79991,55.799537)"
               id="g1117"><path
                 id="path1119"
                 style="fill:#78a9ce;fill-opacity:1;fill-rule:nonzero;stroke:none"
                 d="m 940,599 h 32 v 0 z" /></g></g><g
             transform="matrix(0.89999253,0,0,0.89999253,10.79991,55.799537)"
             id="g1121"><path
               id="path1123"
               style="fill:none;stroke:#ffffff;stroke-width:1;stroke-linecap:butt;stroke-linejoin:bevel;stroke-miterlimit:10;stroke-dasharray:none;stroke-opacity:1"
               d="m 940,599 h 32 v 0 z" /></g><g
             id="g1125"><g
               transform="matrix(0.89999253,0,0,0.89999253,10.79991,55.799537)"
               id="g1127"><path
                 id="path1129"
                 style="fill:#81b1d5;fill-opacity:1;fill-rule:nonzero;stroke:none"
                 d="M 385,293 H 618 V 447 H 385 Z" /></g></g><g
             transform="matrix(0.89999253,0,0,0.89999253,10.79991,55.799537)"
             id="g1131"><path
               id="path1133"
               style="fill:none;stroke:#ffffff;stroke-width:1;stroke-linecap:butt;stroke-linejoin:miter;stroke-miterlimit:10;stroke-dasharray:none;stroke-opacity:1"
               d="M 385,293 H 618 V 447 H 385 Z" /></g><g
             id="g1135"><g
               transform="matrix(0.89999253,0,0,0.89999253,10.79991,55.799537)"
               id="g1137"><path
                 id="path1139"
                 style="fill:#8bbadc;fill-opacity:1;fill-rule:nonzero;stroke:none"
                 d="M 4,4 H 385 V 304 H 4 Z" /></g></g><g
             transform="matrix(0.89999253,0,0,0.89999253,10.79991,55.799537)"
             id="g1141"><path
               id="path1143"
               style="fill:none;stroke:#ffffff;stroke-width:1;stroke-linecap:butt;stroke-linejoin:miter;stroke-miterlimit:10;stroke-dasharray:none;stroke-opacity:1"
               d="M 4,4 H 385 V 304 H 4 Z" /></g><g
             id="g1145"><g
               transform="matrix(0.89999253,0,0,0.89999253,10.79991,55.799537)"
               id="g1147"><path
                 id="path1149"
                 style="fill:#96c3e2;fill-opacity:1;fill-rule:nonzero;stroke:none"
                 d="m 842,293 h 65 v 113 h -65 z" /></g></g><g
             transform="matrix(0.89999253,0,0,0.89999253,10.79991,55.799537)"
             id="g1151"><path
               id="path1153"
               style="fill:none;stroke:#ffffff;stroke-width:1;stroke-linecap:butt;stroke-linejoin:miter;stroke-miterlimit:10;stroke-dasharray:none;stroke-opacity:1"
               d="m 842,293 h 65 v 113 h -65 z" /></g><g
             id="g1155"><g
               transform="matrix(0.89999253,0,0,0.89999253,10.79991,55.799537)"
               id="g1157"><path
                 id="path1159"
                 style="fill:#a1cce7;fill-opacity:1;fill-rule:nonzero;stroke:none"
                 d="m 842,567 h 98 v 32 h -98 z" /></g></g><g
             transform="matrix(0.89999253,0,0,0.89999253,10.79991,55.799537)"
             id="g1161"><path
               id="path1163"
               style="fill:none;stroke:#ffffff;stroke-width:1;stroke-linecap:butt;stroke-linejoin:miter;stroke-miterlimit:10;stroke-dasharray:none;stroke-opacity:1"
               d="m 842,567 h 98 v 32 h -98 z" /></g><g
             id="g1165"><g
               transform="matrix(0.89999253,0,0,0.89999253,10.79991,55.799537)"
               id="g1167"><path
                 id="path1169"
                 style="fill:#add4ec;fill-opacity:1;fill-rule:nonzero;stroke:none"
                 d="m 618,522 h 224 v 77 H 618 Z" /></g></g><g
             transform="matrix(0.89999253,0,0,0.89999253,10.79991,55.799537)"
             id="g1171"><path
               id="path1173"
               style="fill:none;stroke:#ffffff;stroke-width:1;stroke-linecap:butt;stroke-linejoin:miter;stroke-miterlimit:10;stroke-dasharray:none;stroke-opacity:1"
               d="m 618,522 h 224 v 77 H 618 Z" /></g><g
             id="g1175"><g
               transform="matrix(0.89999253,0,0,0.89999253,10.79991,55.799537)"
               id="g1177"><path
                 id="path1179"
                 style="fill:#b9ddf1;fill-opacity:1;fill-rule:nonzero;stroke:none"
                 d="m 842,511 h 98 v 56 h -98 z" /></g></g><g
             transform="matrix(0.89999253,0,0,0.89999253,10.79991,55.799537)"
             id="g1181"><path
               id="path1183"
               style="fill:none;stroke:#ffffff;stroke-width:1;stroke-linecap:butt;stroke-linejoin:miter;stroke-miterlimit:10;stroke-dasharray:none;stroke-opacity:1"
               d="m 842,511 h 98 v 56 h -98 z" /></g></g></g><g
         id="g1185"><g
           clip-path="url(#clipPath1191)"
           id="g1187"><g
             transform="matrix(0.89999253,0,0,0.89999253,10.79991,55.799537)"
             id="g1193"><g
               id="g1195"><text
                 id="text1199"
                 style="font-variant:normal;font-size:15px;font-family:TableauBook-0;-inkscape-font-specification:TableauBook-0-50;writing-mode:lr-tb;fill:#ffffff;fill-opacity:1;fill-rule:nonzero;stroke:none"
                 transform="translate(12,328)"><tspan
                   id="tspan1197"
                   sodipodi:role="line"
                   y="0"
                   x="0 10.5 19.359375 23.765625 30.3125 38.625">United</tspan></text></g><g
               id="g1201"><text
                 id="text1205"
                 style="font-variant:normal;font-size:15px;font-family:TableauBook-0;-inkscape-font-specification:TableauBook-0-50;writing-mode:lr-tb;fill:#ffffff;fill-opacity:1;fill-rule:nonzero;stroke:none"
                 transform="translate(626,317)"><tspan
                   id="tspan1203"
                   sodipodi:role="line"
                   y="0"
                   x="0 10.5 19.40625 22.640625 32.59375 37 43.4375 55.953125 64.46875 72.65625">US Airways</tspan></text></g><g
               id="g1207" /><g
               id="g1213"><text
                 id="text1217"
                 style="font-variant:normal;font-size:15px;font-family:TableauBook-0;-inkscape-font-specification:TableauBook-0-50;writing-mode:lr-tb;fill:#ffffff;fill-opacity:1;fill-rule:nonzero;stroke:none"
                 transform="translate(766,28)"><tspan
                   id="tspan1215"
                   sodipodi:role="line"
                   y="0"
                   x="0 8.90625 17.59375 26.4375 32.984375 41.828125 54.34375 62.65625 70.28125">Southwest</tspan></text></g><g
               id="g1219"><text
                 id="text1223"
                 style="font-variant:normal;font-size:15px;font-family:TableauBook-0;-inkscape-font-specification:TableauBook-0-50;writing-mode:lr-tb;fill:#ffffff;fill-opacity:1;fill-rule:nonzero;stroke:none"
                 transform="translate(393,471)"><tspan
                   id="tspan1221"
                   sodipodi:role="line"
                   y="0"
                   x="0 11.09375 19.78125 26.21875 32.765625 41.609375 54.125 62.4375 70.0625">Northwest</tspan></text></g><g
               id="g1225"><text
                 id="text1229"
                 style="font-variant:normal;font-size:15px;font-family:TableauBook-0;-inkscape-font-specification:TableauBook-0-50;writing-mode:lr-tb;fill:#ffffff;fill-opacity:1;fill-rule:nonzero;stroke:none"
                 transform="translate(626,468)"><tspan
                   y="0"
                   id="tspan1227"
                   sodipodi:role="line"
                   x="0 7.1875 15.5 22.046875 25.28125 35.203125 39.609375 48.453125">Jet Blue</tspan></text></g><g
               id="g1231"><text
                 id="text1235"
                 style="font-variant:normal;font-size:15px;font-family:TableauBook-0;-inkscape-font-specification:TableauBook-0-50;writing-mode:lr-tb;fill:#000000;fill-opacity:1;fill-rule:nonzero;stroke:none"
                 transform="translate(393,28)"><tspan
                   id="tspan1233"
                   sodipodi:role="line"
                   y="0"
                   x="0 10.4375 18.75 23.15625 29.703125">Delta</tspan></text></g><g
               id="g1237"><text
                 id="text1241"
                 style="font-variant:normal;font-size:15px;font-family:TableauBook-0;-inkscape-font-specification:TableauBook-0-50;writing-mode:lr-tb;fill:#000000;fill-opacity:1;fill-rule:nonzero;stroke:none"
                 transform="translate(393,317)"><tspan
                   id="tspan1239"
                   sodipodi:role="line"
                   y="0"
                   x="0 8.90625 17.59375 26.453125 33 37.40625 46.265625 54.578125 63.4375 69.984375 78.5">Continental</tspan></text></g><g
               id="g1243"><text
                 id="text1247"
                 style="font-variant:normal;font-size:15px;font-family:TableauBook-0;-inkscape-font-specification:TableauBook-0-50;writing-mode:lr-tb;fill:#000000;fill-opacity:1;fill-rule:nonzero;stroke:none"
                 transform="translate(12,28)"><tspan
                   id="tspan1245"
                   sodipodi:role="line"
                   y="0"
                   x="0 9.953125 23.15625 31.46875 37.90625 42.3125 49.5 58.015625">American</tspan></text></g><g
               id="g1249"><text
                 id="text1253"
                 style="font-variant:normal;font-size:15px;font-family:TableauBook-0;-inkscape-font-specification:TableauBook-0-50;writing-mode:lr-tb;fill:#000000;fill-opacity:1;fill-rule:nonzero;stroke:none"
                 transform="translate(626,546)"><tspan
                   id="tspan1251"
                   sodipodi:role="line"
                   y="0"
                   x="0 9.953125 14.359375 22.875 30.5 38.59375">Alaska</tspan></text></g><g
               id="g1255" /></g></g></g><g
         id="g1261"><g
           clip-path="url(#clipPath1267)"
           id="g1263"><g
             transform="matrix(0.89999253,0,0,0.89999253,10.79991,55.799537)"
             id="g1269" /></g></g><g
         id="g1271"><g
           clip-path="url(#clipPath1277)"
           id="g1273"><g
             transform="matrix(0.89999253,0,0,0.89999253,10.79991,55.799537)"
             id="g1279" /></g></g><g
         id="g1281"><g
           clip-path="url(#clipPath1287)"
           id="g1283"><g
             transform="matrix(0.89999253,0,0,0.89999253,10.79991,55.799537)"
             id="g1289" /></g></g><g
         id="g1291"><g
           clip-path="url(#clipPath1297)"
           id="g1293"><g
             transform="matrix(0.89999253,0,0,0.89999253,10.79991,55.799537)"
             id="g1299" /></g></g><g
         id="g1301"><g
           clip-path="url(#clipPath1307)"
           id="g1303"><g
             transform="matrix(0.89999253,0,0,0.89999253,10.79991,55.799537)"
             id="g1309" /></g></g><g
         id="g1311"><g
           clip-path="url(#clipPath1317)"
           id="g1313"><g
             transform="matrix(0.89999253,0,0,0.89999253,10.79991,55.799537)"
             id="g1319" /></g></g><g
         id="g1321"><g
           clip-path="url(#clipPath1327)"
           id="g1323"><g
             transform="matrix(0.89999253,0,0,0.89999253,10.79991,55.799537)"
             id="g1329" /></g></g><g
         id="g1331"><g
           clip-path="url(#clipPath1337)"
           id="g1333"><g
             transform="matrix(0.89999253,0,0,0.89999253,10.79991,55.799537)"
             id="g1339" /></g></g><g
         id="g1341"><g
           clip-path="url(#clipPath1347)"
           id="g1343"><g
             transform="matrix(0.89999253,0,0,0.89999253,10.79991,55.799537)"
             id="g1349" /></g></g><g
         id="g1351"><g
           clip-path="url(#clipPath1357)"
           id="g1353"><g
             transform="matrix(0.89999253,0,0,0.89999253,10.79991,55.799537)"
             id="g1359" /></g></g><g
         id="g1361"><g
           clip-path="url(#clipPath1367)"
           id="g1363"><g
             transform="matrix(0.89999253,0,0,0.89999253,10.79991,55.799537)"
             id="g1369" /></g></g><g
         id="g1371"><g
           clip-path="url(#clipPath1377)"
           id="g1373"><g
             transform="matrix(0.89999253,0,0,0.89999253,10.79991,55.799537)"
             id="g1379" /></g></g><g
         id="g1381"><g
           clip-path="url(#clipPath1387)"
           id="g1383"><g
             transform="matrix(0.89999253,0,0,0.89999253,10.79991,55.799537)"
             id="g1389" /></g></g><g
         id="g1391"><g
           clip-path="url(#clipPath1397)"
           id="g1393"><g
             transform="matrix(0.89999253,0,0,0.89999253,10.79991,10.79991)"
             id="g1399"><g
               id="g1401" /></g></g></g><g
         id="g1407"><g
           transform="scale(0.89999253)"
           id="g1409" /></g></g></g></svg>
